<svg width="1440" height="415" viewBox="0 0 1440 415" fill="none" xmlns="http://www.w3.org/2000/svg">
<path d="M0.0201535 413.432L107 365.5" stroke="#E9EBF8" stroke-opacity="0.2" stroke-width="3"/>
<path d="M106 366L179.412 365.25" stroke="#E9EBF8" stroke-opacity="0.2" stroke-width="3"/>
<path d="M178.186 365.572L318 279.5" stroke="#E9EBF8" stroke-opacity="0.2" stroke-width="3"/>
<path d="M316.5 279.5L481.846 322.317" stroke="#E9EBF8" stroke-opacity="0.2" stroke-width="3"/>
<path d="M479.677 322.824L609 204.5" stroke="#E9EBF8" stroke-opacity="0.2" stroke-width="3"/>
<path d="M607.5 205L745 226" stroke="#E9EBF8" stroke-opacity="0.2" stroke-width="3"/>
<path d="M745 226L977 133" stroke="#E9EBF8" stroke-opacity="0.2" stroke-width="3"/>
<line y1="-1.5" x2="181.528" y2="-1.5" transform="matrix(0.92251 -0.385974 0.39049 0.920607 977.433 134.537)" stroke="#E9EBF8" stroke-opacity="0.2" stroke-width="3"/>
<path d="M1144 63.0001L1442.08 38.7516" stroke="#E9EBF8" stroke-opacity="0.2" stroke-width="3"/>
<circle cx="104.955" cy="365" r="15" fill="#E74C3C" fill-opacity="0.8"/>
<path d="M1072.68 16.096C1071.84 16.096 1071.06 15.9573 1070.35 15.68C1069.63 15.392 1069.01 14.992 1068.49 14.48C1067.97 13.968 1067.56 13.3653 1067.26 12.672C1066.97 11.9787 1066.83 11.2213 1066.83 10.4C1066.83 9.57867 1066.97 8.82133 1067.26 8.128C1067.56 7.43467 1067.97 6.832 1068.49 6.32C1069.02 5.808 1069.65 5.41333 1070.36 5.136C1071.08 4.848 1071.86 4.704 1072.7 4.704C1073.51 4.704 1074.27 4.84267 1074.99 5.12C1075.7 5.38667 1076.3 5.792 1076.79 6.336L1076.04 7.088C1075.58 6.61867 1075.08 6.28267 1074.52 6.08C1073.97 5.86667 1073.37 5.76 1072.73 5.76C1072.06 5.76 1071.43 5.87733 1070.86 6.112C1070.28 6.336 1069.78 6.66133 1069.35 7.088C1068.93 7.504 1068.59 7.99467 1068.35 8.56C1068.11 9.11467 1067.99 9.728 1067.99 10.4C1067.99 11.072 1068.11 11.6907 1068.35 12.256C1068.59 12.8107 1068.93 13.3013 1069.35 13.728C1069.78 14.144 1070.28 14.4693 1070.86 14.704C1071.43 14.928 1072.06 15.04 1072.73 15.04C1073.37 15.04 1073.97 14.9333 1074.52 14.72C1075.08 14.5067 1075.58 14.1653 1076.04 13.696L1076.79 14.448C1076.3 14.992 1075.7 15.4027 1074.99 15.68C1074.27 15.9573 1073.5 16.096 1072.68 16.096ZM1084.22 16V14.144L1084.17 13.84V10.736C1084.17 10.0213 1083.97 9.472 1083.56 9.088C1083.17 8.704 1082.57 8.512 1081.79 8.512C1081.24 8.512 1080.72 8.60267 1080.23 8.784C1079.74 8.96533 1079.33 9.20533 1078.99 9.504L1078.47 8.656C1078.9 8.29333 1079.41 8.016 1080.01 7.824C1080.61 7.62133 1081.24 7.52 1081.9 7.52C1082.99 7.52 1083.82 7.792 1084.41 8.336C1085.01 8.86933 1085.31 9.68533 1085.31 10.784V16H1084.22ZM1081.32 16.08C1080.69 16.08 1080.14 15.9787 1079.67 15.776C1079.21 15.5627 1078.86 15.2747 1078.62 14.912C1078.37 14.5387 1078.25 14.112 1078.25 13.632C1078.25 13.1947 1078.35 12.8 1078.55 12.448C1078.77 12.0853 1079.11 11.7973 1079.58 11.584C1080.06 11.36 1080.7 11.248 1081.5 11.248H1084.39V12.096H1081.53C1080.72 12.096 1080.15 12.24 1079.83 12.528C1079.52 12.816 1079.37 13.1733 1079.37 13.6C1079.37 14.08 1079.56 14.464 1079.93 14.752C1080.3 15.04 1080.83 15.184 1081.5 15.184C1082.14 15.184 1082.69 15.04 1083.15 14.752C1083.61 14.4533 1083.96 14.0267 1084.17 13.472L1084.43 14.256C1084.21 14.8107 1083.84 15.2533 1083.31 15.584C1082.78 15.9147 1082.12 16.08 1081.32 16.08ZM1088.39 16V7.6H1089.48V9.888L1089.37 9.488C1089.6 8.848 1090 8.36267 1090.55 8.032C1091.11 7.69067 1091.79 7.52 1092.61 7.52V8.624C1092.57 8.624 1092.53 8.624 1092.49 8.624C1092.44 8.61333 1092.4 8.608 1092.36 8.608C1091.47 8.608 1090.78 8.88 1090.28 9.424C1089.78 9.95733 1089.53 10.72 1089.53 11.712V16H1088.39ZM1094.69 16V7.6H1095.78V9.888L1095.66 9.488C1095.9 8.848 1096.29 8.36267 1096.85 8.032C1097.4 7.69067 1098.09 7.52 1098.91 7.52V8.624C1098.87 8.624 1098.83 8.624 1098.78 8.624C1098.74 8.61333 1098.7 8.608 1098.66 8.608C1097.77 8.608 1097.08 8.88 1096.58 9.424C1096.07 9.95733 1095.82 10.72 1095.82 11.712V16H1094.69ZM1104.47 16.08C1103.6 16.08 1102.83 15.8987 1102.17 15.536C1101.51 15.1627 1100.99 14.656 1100.62 14.016C1100.24 13.3653 1100.06 12.624 1100.06 11.792C1100.06 10.96 1100.23 10.224 1100.59 9.584C1100.95 8.944 1101.44 8.44267 1102.06 8.08C1102.69 7.70667 1103.39 7.52 1104.17 7.52C1104.96 7.52 1105.66 7.70133 1106.27 8.064C1106.88 8.416 1107.37 8.91733 1107.72 9.568C1108.07 10.208 1108.25 10.9493 1108.25 11.792C1108.25 11.8453 1108.24 11.904 1108.23 11.968C1108.23 12.0213 1108.23 12.08 1108.23 12.144H1100.92V11.296H1107.63L1107.18 11.632C1107.18 11.024 1107.04 10.4853 1106.78 10.016C1106.52 9.536 1106.17 9.16267 1105.72 8.896C1105.27 8.62933 1104.76 8.496 1104.17 8.496C1103.59 8.496 1103.08 8.62933 1102.62 8.896C1102.16 9.16267 1101.8 9.536 1101.55 10.016C1101.29 10.496 1101.16 11.0453 1101.16 11.664V11.84C1101.16 12.48 1101.3 13.0453 1101.58 13.536C1101.87 14.016 1102.26 14.3947 1102.76 14.672C1103.27 14.9387 1103.86 15.072 1104.51 15.072C1105.02 15.072 1105.49 14.9813 1105.93 14.8C1106.38 14.6187 1106.76 14.3413 1107.08 13.968L1107.72 14.704C1107.35 15.152 1106.88 15.4933 1106.31 15.728C1105.76 15.9627 1105.15 16.08 1104.47 16.08ZM1110.56 16V7.6H1111.7V16H1110.56ZM1111.14 5.744C1110.9 5.744 1110.71 5.664 1110.55 5.504C1110.39 5.344 1110.31 5.152 1110.31 4.928C1110.31 4.704 1110.39 4.51733 1110.55 4.368C1110.71 4.208 1110.9 4.128 1111.14 4.128C1111.37 4.128 1111.57 4.20267 1111.73 4.352C1111.89 4.50133 1111.97 4.688 1111.97 4.912C1111.97 5.14667 1111.89 5.344 1111.73 5.504C1111.58 5.664 1111.38 5.744 1111.14 5.744ZM1114.86 16V7.6H1115.95V9.888L1115.84 9.488C1116.07 8.848 1116.46 8.36267 1117.02 8.032C1117.57 7.69067 1118.26 7.52 1119.08 7.52V8.624C1119.04 8.624 1119 8.624 1118.96 8.624C1118.91 8.61333 1118.87 8.608 1118.83 8.608C1117.94 8.608 1117.25 8.88 1116.75 9.424C1116.25 9.95733 1116 10.72 1116 11.712V16H1114.86ZM1125.8 16V14.144L1125.75 13.84V10.736C1125.75 10.0213 1125.54 9.472 1125.14 9.088C1124.74 8.704 1124.15 8.512 1123.36 8.512C1122.82 8.512 1122.3 8.60267 1121.81 8.784C1121.32 8.96533 1120.9 9.20533 1120.56 9.504L1120.05 8.656C1120.48 8.29333 1120.99 8.016 1121.59 7.824C1122.18 7.62133 1122.81 7.52 1123.48 7.52C1124.56 7.52 1125.4 7.792 1125.99 8.336C1126.58 8.86933 1126.88 9.68533 1126.88 10.784V16H1125.8ZM1122.9 16.08C1122.27 16.08 1121.72 15.9787 1121.25 15.776C1120.79 15.5627 1120.44 15.2747 1120.2 14.912C1119.95 14.5387 1119.83 14.112 1119.83 13.632C1119.83 13.1947 1119.93 12.8 1120.13 12.448C1120.34 12.0853 1120.69 11.7973 1121.16 11.584C1121.64 11.36 1122.28 11.248 1123.08 11.248H1125.97V12.096H1123.11C1122.3 12.096 1121.73 12.24 1121.41 12.528C1121.1 12.816 1120.95 13.1733 1120.95 13.6C1120.95 14.08 1121.13 14.464 1121.51 14.752C1121.88 15.04 1122.4 15.184 1123.08 15.184C1123.72 15.184 1124.26 15.04 1124.72 14.752C1125.19 14.4533 1125.53 14.0267 1125.75 13.472L1126 14.256C1125.79 14.8107 1125.42 15.2533 1124.88 15.584C1124.36 15.9147 1123.7 16.08 1122.9 16.08ZM1138.49 16.08C1137.77 16.08 1137.11 15.9147 1136.52 15.584C1135.94 15.2427 1135.47 14.7573 1135.12 14.128C1134.77 13.488 1134.6 12.7093 1134.6 11.792C1134.6 10.8747 1134.77 10.1013 1135.12 9.472C1135.46 8.832 1135.92 8.34667 1136.51 8.016C1137.09 7.68533 1137.76 7.52 1138.49 7.52C1139.29 7.52 1140.01 7.70133 1140.64 8.064C1141.28 8.416 1141.78 8.91733 1142.14 9.568C1142.5 10.208 1142.68 10.9493 1142.68 11.792C1142.68 12.6453 1142.5 13.392 1142.14 14.032C1141.78 14.672 1141.28 15.1733 1140.64 15.536C1140.01 15.8987 1139.29 16.08 1138.49 16.08ZM1134.16 19.104V7.6H1135.24V10.128L1135.13 11.808L1135.29 13.504V19.104H1134.16ZM1138.41 15.072C1139.01 15.072 1139.54 14.9387 1140.01 14.672C1140.48 14.3947 1140.85 14.0107 1141.13 13.52C1141.41 13.0187 1141.55 12.4427 1141.55 11.792C1141.55 11.1413 1141.41 10.5707 1141.13 10.08C1140.85 9.58933 1140.48 9.20533 1140.01 8.928C1139.54 8.65067 1139.01 8.512 1138.41 8.512C1137.81 8.512 1137.28 8.65067 1136.8 8.928C1136.33 9.20533 1135.95 9.58933 1135.68 10.08C1135.41 10.5707 1135.28 11.1413 1135.28 11.792C1135.28 12.4427 1135.41 13.0187 1135.68 13.52C1135.95 14.0107 1136.33 14.3947 1136.8 14.672C1137.28 14.9387 1137.81 15.072 1138.41 15.072ZM1145 16V7.6H1146.09V9.888L1145.98 9.488C1146.21 8.848 1146.61 8.36267 1147.16 8.032C1147.71 7.69067 1148.4 7.52 1149.22 7.52V8.624C1149.18 8.624 1149.14 8.624 1149.1 8.624C1149.05 8.61333 1149.01 8.608 1148.97 8.608C1148.08 8.608 1147.39 8.88 1146.89 9.424C1146.39 9.95733 1146.14 10.72 1146.14 11.712V16H1145ZM1154.64 16.08C1153.83 16.08 1153.1 15.8987 1152.45 15.536C1151.81 15.1627 1151.3 14.656 1150.93 14.016C1150.56 13.3653 1150.37 12.624 1150.37 11.792C1150.37 10.9493 1150.56 10.208 1150.93 9.568C1151.3 8.928 1151.81 8.42667 1152.45 8.064C1153.09 7.70133 1153.82 7.52 1154.64 7.52C1155.47 7.52 1156.21 7.70133 1156.85 8.064C1157.5 8.42667 1158.01 8.928 1158.37 9.568C1158.74 10.208 1158.93 10.9493 1158.93 11.792C1158.93 12.624 1158.74 13.3653 1158.37 14.016C1158.01 14.656 1157.5 15.1627 1156.85 15.536C1156.2 15.8987 1155.46 16.08 1154.64 16.08ZM1154.64 15.072C1155.25 15.072 1155.79 14.9387 1156.26 14.672C1156.73 14.3947 1157.1 14.0107 1157.36 13.52C1157.64 13.0187 1157.78 12.4427 1157.78 11.792C1157.78 11.1307 1157.64 10.5547 1157.36 10.064C1157.1 9.57333 1156.73 9.19467 1156.26 8.928C1155.79 8.65067 1155.26 8.512 1154.66 8.512C1154.06 8.512 1153.53 8.65067 1153.06 8.928C1152.59 9.19467 1152.22 9.57333 1151.94 10.064C1151.66 10.5547 1151.52 11.1307 1151.52 11.792C1151.52 12.4427 1151.66 13.0187 1151.94 13.52C1152.22 14.0107 1152.59 14.3947 1153.06 14.672C1153.53 14.9387 1154.06 15.072 1154.64 15.072ZM1161.44 16V6.544C1161.44 5.79733 1161.66 5.19467 1162.1 4.736C1162.54 4.27733 1163.16 4.048 1163.99 4.048C1164.31 4.048 1164.62 4.09067 1164.91 4.176C1165.21 4.26133 1165.46 4.39467 1165.67 4.576L1165.28 5.424C1165.12 5.28533 1164.94 5.184 1164.72 5.12C1164.51 5.04533 1164.28 5.008 1164.03 5.008C1163.55 5.008 1163.19 5.14133 1162.93 5.408C1162.67 5.67467 1162.55 6.06933 1162.55 6.592V7.872L1162.58 8.4V16H1161.44ZM1159.94 8.544V7.6H1165.14V8.544H1159.94ZM1166.67 16V7.6H1167.81V16H1166.67ZM1167.25 5.744C1167.02 5.744 1166.82 5.664 1166.66 5.504C1166.5 5.344 1166.42 5.152 1166.42 4.928C1166.42 4.704 1166.5 4.51733 1166.66 4.368C1166.82 4.208 1167.02 4.128 1167.25 4.128C1167.48 4.128 1167.68 4.20267 1167.84 4.352C1168 4.50133 1168.08 4.688 1168.08 4.912C1168.08 5.14667 1168 5.344 1167.84 5.504C1167.69 5.664 1167.5 5.744 1167.25 5.744ZM1173.26 16.08C1172.56 16.08 1171.91 15.984 1171.29 15.792C1170.67 15.5893 1170.18 15.3387 1169.83 15.04L1170.34 14.144C1170.69 14.4 1171.12 14.624 1171.66 14.816C1172.19 14.9973 1172.75 15.088 1173.34 15.088C1174.14 15.088 1174.71 14.9653 1175.06 14.72C1175.42 14.464 1175.59 14.128 1175.59 13.712C1175.59 13.4027 1175.49 13.1627 1175.29 12.992C1175.1 12.8107 1174.84 12.6773 1174.52 12.592C1174.2 12.496 1173.84 12.416 1173.45 12.352C1173.05 12.288 1172.66 12.2133 1172.26 12.128C1171.88 12.0427 1171.53 11.92 1171.21 11.76C1170.89 11.5893 1170.63 11.36 1170.42 11.072C1170.23 10.784 1170.14 10.4 1170.14 9.92C1170.14 9.46133 1170.26 9.05067 1170.52 8.688C1170.78 8.32533 1171.15 8.04267 1171.64 7.84C1172.14 7.62667 1172.75 7.52 1173.46 7.52C1174.01 7.52 1174.55 7.59467 1175.1 7.744C1175.64 7.88267 1176.09 8.06933 1176.44 8.304L1175.94 9.216C1175.57 8.96 1175.17 8.77867 1174.74 8.672C1174.32 8.55467 1173.89 8.496 1173.46 8.496C1172.71 8.496 1172.15 8.62933 1171.78 8.896C1171.43 9.152 1171.26 9.48267 1171.26 9.888C1171.26 10.208 1171.35 10.4587 1171.54 10.64C1171.75 10.8213 1172.01 10.9653 1172.33 11.072C1172.66 11.168 1173.02 11.248 1173.4 11.312C1173.79 11.376 1174.18 11.456 1174.57 11.552C1174.96 11.6373 1175.32 11.76 1175.64 11.92C1175.97 12.0693 1176.23 12.288 1176.42 12.576C1176.63 12.8533 1176.73 13.2213 1176.73 13.68C1176.73 14.1707 1176.59 14.5973 1176.31 14.96C1176.05 15.312 1175.65 15.5893 1175.13 15.792C1174.62 15.984 1173.99 16.08 1173.26 16.08ZM1181.07 16.08C1180.38 16.08 1179.72 15.984 1179.1 15.792C1178.48 15.5893 1178 15.3387 1177.64 15.04L1178.16 14.144C1178.5 14.4 1178.94 14.624 1179.47 14.816C1180 14.9973 1180.56 15.088 1181.15 15.088C1181.95 15.088 1182.52 14.9653 1182.88 14.72C1183.23 14.464 1183.4 14.128 1183.4 13.712C1183.4 13.4027 1183.3 13.1627 1183.1 12.992C1182.91 12.8107 1182.65 12.6773 1182.33 12.592C1182.01 12.496 1181.66 12.416 1181.26 12.352C1180.87 12.288 1180.47 12.2133 1180.08 12.128C1179.69 12.0427 1179.34 11.92 1179.02 11.76C1178.7 11.5893 1178.44 11.36 1178.24 11.072C1178.04 10.784 1177.95 10.4 1177.95 9.92C1177.95 9.46133 1178.08 9.05067 1178.33 8.688C1178.59 8.32533 1178.96 8.04267 1179.45 7.84C1179.95 7.62667 1180.56 7.52 1181.28 7.52C1181.82 7.52 1182.36 7.59467 1182.91 7.744C1183.45 7.88267 1183.9 8.06933 1184.25 8.304L1183.76 9.216C1183.38 8.96 1182.98 8.77867 1182.56 8.672C1182.13 8.55467 1181.7 8.496 1181.28 8.496C1180.52 8.496 1179.96 8.62933 1179.6 8.896C1179.24 9.152 1179.07 9.48267 1179.07 9.888C1179.07 10.208 1179.16 10.4587 1179.36 10.64C1179.56 10.8213 1179.82 10.9653 1180.14 11.072C1180.47 11.168 1180.83 11.248 1181.21 11.312C1181.61 11.376 1182 11.456 1182.38 11.552C1182.78 11.6373 1183.13 11.76 1183.45 11.92C1183.78 12.0693 1184.04 12.288 1184.24 12.576C1184.44 12.8533 1184.54 13.2213 1184.54 13.68C1184.54 14.1707 1184.4 14.5973 1184.12 14.96C1183.86 15.312 1183.46 15.5893 1182.94 15.792C1182.43 15.984 1181.8 16.08 1181.07 16.08ZM1186.62 16V7.6H1187.76V16H1186.62ZM1187.2 5.744C1186.97 5.744 1186.77 5.664 1186.61 5.504C1186.45 5.344 1186.37 5.152 1186.37 4.928C1186.37 4.704 1186.45 4.51733 1186.61 4.368C1186.77 4.208 1186.97 4.128 1187.2 4.128C1187.44 4.128 1187.63 4.20267 1187.79 4.352C1187.95 4.50133 1188.03 4.688 1188.03 4.912C1188.03 5.14667 1187.95 5.344 1187.79 5.504C1187.64 5.664 1187.45 5.744 1187.2 5.744ZM1194.35 16.08C1193.54 16.08 1192.8 15.8987 1192.15 15.536C1191.51 15.1627 1191.01 14.656 1190.63 14.016C1190.26 13.3653 1190.07 12.624 1190.07 11.792C1190.07 10.9493 1190.26 10.208 1190.63 9.568C1191.01 8.928 1191.51 8.42667 1192.15 8.064C1192.79 7.70133 1193.52 7.52 1194.35 7.52C1195.18 7.52 1195.91 7.70133 1196.55 8.064C1197.2 8.42667 1197.71 8.928 1198.07 9.568C1198.45 10.208 1198.63 10.9493 1198.63 11.792C1198.63 12.624 1198.45 13.3653 1198.07 14.016C1197.71 14.656 1197.2 15.1627 1196.55 15.536C1195.9 15.8987 1195.17 16.08 1194.35 16.08ZM1194.35 15.072C1194.95 15.072 1195.49 14.9387 1195.96 14.672C1196.43 14.3947 1196.8 14.0107 1197.07 13.52C1197.34 13.0187 1197.48 12.4427 1197.48 11.792C1197.48 11.1307 1197.34 10.5547 1197.07 10.064C1196.8 9.57333 1196.43 9.19467 1195.96 8.928C1195.49 8.65067 1194.96 8.512 1194.36 8.512C1193.76 8.512 1193.23 8.65067 1192.76 8.928C1192.29 9.19467 1191.92 9.57333 1191.64 10.064C1191.36 10.5547 1191.23 11.1307 1191.23 11.792C1191.23 12.4427 1191.36 13.0187 1191.64 13.52C1191.92 14.0107 1192.29 14.3947 1192.76 14.672C1193.23 14.9387 1193.76 15.072 1194.35 15.072ZM1205.24 7.52C1205.92 7.52 1206.52 7.65333 1207.03 7.92C1207.56 8.176 1207.96 8.57067 1208.25 9.104C1208.55 9.63733 1208.7 10.3093 1208.7 11.12V16H1207.56V11.232C1207.56 10.3467 1207.34 9.68 1206.89 9.232C1206.45 8.77333 1205.83 8.544 1205.03 8.544C1204.44 8.544 1203.91 8.66667 1203.47 8.912C1203.03 9.14667 1202.69 9.49333 1202.44 9.952C1202.21 10.4 1202.09 10.944 1202.09 11.584V16H1200.95V7.6H1202.04V9.904L1201.87 9.472C1202.13 8.864 1202.56 8.38933 1203.15 8.048C1203.73 7.696 1204.43 7.52 1205.24 7.52ZM1217.03 16V14.144L1216.98 13.84V10.736C1216.98 10.0213 1216.78 9.472 1216.37 9.088C1215.98 8.704 1215.39 8.512 1214.6 8.512C1214.05 8.512 1213.54 8.60267 1213.05 8.784C1212.55 8.96533 1212.14 9.20533 1211.8 9.504L1211.29 8.656C1211.71 8.29333 1212.22 8.016 1212.82 7.824C1213.42 7.62133 1214.05 7.52 1214.71 7.52C1215.8 7.52 1216.63 7.792 1217.22 8.336C1217.82 8.86933 1218.12 9.68533 1218.12 10.784V16H1217.03ZM1214.13 16.08C1213.5 16.08 1212.95 15.9787 1212.49 15.776C1212.03 15.5627 1211.67 15.2747 1211.43 14.912C1211.18 14.5387 1211.06 14.112 1211.06 13.632C1211.06 13.1947 1211.16 12.8 1211.37 12.448C1211.58 12.0853 1211.92 11.7973 1212.39 11.584C1212.87 11.36 1213.51 11.248 1214.31 11.248H1217.21V12.096H1214.34C1213.53 12.096 1212.97 12.24 1212.65 12.528C1212.34 12.816 1212.18 13.1733 1212.18 13.6C1212.18 14.08 1212.37 14.464 1212.74 14.752C1213.11 15.04 1213.64 15.184 1214.31 15.184C1214.95 15.184 1215.5 15.04 1215.96 14.752C1216.43 14.4533 1216.77 14.0267 1216.98 13.472L1217.24 14.256C1217.02 14.8107 1216.65 15.2533 1216.12 15.584C1215.59 15.9147 1214.93 16.08 1214.13 16.08ZM1221.2 16V4.128H1222.34V16H1221.2ZM1084.68 36.08C1083.88 36.08 1083.16 35.8987 1082.52 35.536C1081.89 35.1733 1081.39 34.672 1081.03 34.032C1080.67 33.3813 1080.49 32.6347 1080.49 31.792C1080.49 30.9387 1080.67 30.192 1081.03 29.552C1081.39 28.912 1081.89 28.416 1082.52 28.064C1083.16 27.7013 1083.88 27.52 1084.68 27.52C1085.42 27.52 1086.07 27.6853 1086.65 28.016C1087.23 28.3467 1087.7 28.832 1088.04 29.472C1088.39 30.1013 1088.57 30.8747 1088.57 31.792C1088.57 32.6987 1088.4 33.472 1088.06 34.112C1087.71 34.752 1087.25 35.2427 1086.66 35.584C1086.09 35.9147 1085.43 36.08 1084.68 36.08ZM1084.76 35.072C1085.36 35.072 1085.89 34.9387 1086.36 34.672C1086.84 34.3947 1087.21 34.0107 1087.48 33.52C1087.76 33.0187 1087.9 32.4427 1087.9 31.792C1087.9 31.1307 1087.76 30.5547 1087.48 30.064C1087.21 29.5733 1086.84 29.1947 1086.36 28.928C1085.89 28.6507 1085.36 28.512 1084.76 28.512C1084.17 28.512 1083.65 28.6507 1083.18 28.928C1082.71 29.1947 1082.33 29.5733 1082.06 30.064C1081.78 30.5547 1081.64 31.1307 1081.64 31.792C1081.64 32.4427 1081.78 33.0187 1082.06 33.52C1082.33 34.0107 1082.71 34.3947 1083.18 34.672C1083.65 34.9387 1084.17 35.072 1084.76 35.072ZM1087.93 36V33.472L1088.04 31.776L1087.88 30.08V24.128H1089.02V36H1087.93ZM1095.6 36.08C1094.79 36.08 1094.06 35.8987 1093.41 35.536C1092.77 35.1627 1092.26 34.656 1091.89 34.016C1091.52 33.3653 1091.33 32.624 1091.33 31.792C1091.33 30.9493 1091.52 30.208 1091.89 29.568C1092.26 28.928 1092.77 28.4267 1093.41 28.064C1094.05 27.7013 1094.78 27.52 1095.6 27.52C1096.44 27.52 1097.17 27.7013 1097.81 28.064C1098.46 28.4267 1098.97 28.928 1099.33 29.568C1099.7 30.208 1099.89 30.9493 1099.89 31.792C1099.89 32.624 1099.7 33.3653 1099.33 34.016C1098.97 34.656 1098.46 35.1627 1097.81 35.536C1097.16 35.8987 1096.42 36.08 1095.6 36.08ZM1095.6 35.072C1096.21 35.072 1096.75 34.9387 1097.22 34.672C1097.69 34.3947 1098.06 34.0107 1098.32 33.52C1098.6 33.0187 1098.74 32.4427 1098.74 31.792C1098.74 31.1307 1098.6 30.5547 1098.32 30.064C1098.06 29.5733 1097.69 29.1947 1097.22 28.928C1096.75 28.6507 1096.22 28.512 1095.62 28.512C1095.02 28.512 1094.49 28.6507 1094.02 28.928C1093.55 29.1947 1093.18 29.5733 1092.9 30.064C1092.62 30.5547 1092.48 31.1307 1092.48 31.792C1092.48 32.4427 1092.62 33.0187 1092.9 33.52C1093.18 34.0107 1093.55 34.3947 1094.02 34.672C1094.49 34.9387 1095.02 35.072 1095.6 35.072ZM1104.47 36.08C1103.77 36.08 1103.12 35.984 1102.5 35.792C1101.88 35.5893 1101.39 35.3387 1101.04 35.04L1101.55 34.144C1101.9 34.4 1102.33 34.624 1102.87 34.816C1103.4 34.9973 1103.96 35.088 1104.55 35.088C1105.35 35.088 1105.92 34.9653 1106.27 34.72C1106.63 34.464 1106.8 34.128 1106.8 33.712C1106.8 33.4027 1106.7 33.1627 1106.5 32.992C1106.31 32.8107 1106.05 32.6773 1105.73 32.592C1105.41 32.496 1105.05 32.416 1104.66 32.352C1104.26 32.288 1103.87 32.2133 1103.47 32.128C1103.09 32.0427 1102.74 31.92 1102.42 31.76C1102.1 31.5893 1101.84 31.36 1101.63 31.072C1101.44 30.784 1101.35 30.4 1101.35 29.92C1101.35 29.4613 1101.47 29.0507 1101.73 28.688C1101.99 28.3253 1102.36 28.0427 1102.85 27.84C1103.35 27.6267 1103.96 27.52 1104.67 27.52C1105.22 27.52 1105.76 27.5947 1106.31 27.744C1106.85 27.8827 1107.3 28.0693 1107.65 28.304L1107.15 29.216C1106.78 28.96 1106.38 28.7787 1105.95 28.672C1105.53 28.5547 1105.1 28.496 1104.67 28.496C1103.92 28.496 1103.36 28.6293 1102.99 28.896C1102.64 29.152 1102.47 29.4827 1102.47 29.888C1102.47 30.208 1102.56 30.4587 1102.75 30.64C1102.96 30.8213 1103.22 30.9653 1103.54 31.072C1103.87 31.168 1104.23 31.248 1104.61 31.312C1105.01 31.376 1105.39 31.456 1105.78 31.552C1106.17 31.6373 1106.53 31.76 1106.85 31.92C1107.18 32.0693 1107.44 32.288 1107.63 32.576C1107.84 32.8533 1107.94 33.2213 1107.94 33.68C1107.94 34.1707 1107.8 34.5973 1107.52 34.96C1107.26 35.312 1106.86 35.5893 1106.34 35.792C1105.83 35.984 1105.2 36.08 1104.47 36.08ZM1116.47 36.08C1115.77 36.08 1115.12 35.984 1114.5 35.792C1113.88 35.5893 1113.39 35.3387 1113.04 35.04L1113.55 34.144C1113.9 34.4 1114.33 34.624 1114.87 34.816C1115.4 34.9973 1115.96 35.088 1116.55 35.088C1117.35 35.088 1117.92 34.9653 1118.27 34.72C1118.63 34.464 1118.8 34.128 1118.8 33.712C1118.8 33.4027 1118.7 33.1627 1118.5 32.992C1118.31 32.8107 1118.05 32.6773 1117.73 32.592C1117.41 32.496 1117.05 32.416 1116.66 32.352C1116.26 32.288 1115.87 32.2133 1115.47 32.128C1115.09 32.0427 1114.74 31.92 1114.42 31.76C1114.1 31.5893 1113.84 31.36 1113.63 31.072C1113.44 30.784 1113.35 30.4 1113.35 29.92C1113.35 29.4613 1113.47 29.0507 1113.73 28.688C1113.99 28.3253 1114.36 28.0427 1114.85 27.84C1115.35 27.6267 1115.96 27.52 1116.67 27.52C1117.22 27.52 1117.76 27.5947 1118.31 27.744C1118.85 27.8827 1119.3 28.0693 1119.65 28.304L1119.15 29.216C1118.78 28.96 1118.38 28.7787 1117.95 28.672C1117.53 28.5547 1117.1 28.496 1116.67 28.496C1115.92 28.496 1115.36 28.6293 1114.99 28.896C1114.64 29.152 1114.47 29.4827 1114.47 29.888C1114.47 30.208 1114.56 30.4587 1114.75 30.64C1114.96 30.8213 1115.22 30.9653 1115.54 31.072C1115.87 31.168 1116.23 31.248 1116.61 31.312C1117.01 31.376 1117.39 31.456 1117.78 31.552C1118.17 31.6373 1118.53 31.76 1118.85 31.92C1119.18 32.0693 1119.44 32.288 1119.63 32.576C1119.84 32.8533 1119.94 33.2213 1119.94 33.68C1119.94 34.1707 1119.8 34.5973 1119.52 34.96C1119.26 35.312 1118.86 35.5893 1118.34 35.792C1117.83 35.984 1117.2 36.08 1116.47 36.08ZM1125.59 36.08C1124.72 36.08 1123.95 35.8987 1123.29 35.536C1122.63 35.1627 1122.11 34.656 1121.74 34.016C1121.36 33.3653 1121.18 32.624 1121.18 31.792C1121.18 30.96 1121.35 30.224 1121.7 29.584C1122.07 28.944 1122.56 28.4427 1123.18 28.08C1123.8 27.7067 1124.51 27.52 1125.29 27.52C1126.08 27.52 1126.78 27.7013 1127.38 28.064C1128 28.416 1128.49 28.9173 1128.84 29.568C1129.19 30.208 1129.37 30.9493 1129.37 31.792C1129.37 31.8453 1129.36 31.904 1129.35 31.968C1129.35 32.0213 1129.35 32.08 1129.35 32.144H1122.04V31.296H1128.74L1128.3 31.632C1128.3 31.024 1128.16 30.4853 1127.9 30.016C1127.64 29.536 1127.29 29.1627 1126.84 28.896C1126.39 28.6293 1125.87 28.496 1125.29 28.496C1124.71 28.496 1124.19 28.6293 1123.74 28.896C1123.28 29.1627 1122.92 29.536 1122.66 30.016C1122.41 30.496 1122.28 31.0453 1122.28 31.664V31.84C1122.28 32.48 1122.42 33.0453 1122.7 33.536C1122.98 34.016 1123.38 34.3947 1123.88 34.672C1124.39 34.9387 1124.97 35.072 1125.62 35.072C1126.14 35.072 1126.61 34.9813 1127.05 34.8C1127.5 34.6187 1127.88 34.3413 1128.2 33.968L1128.84 34.704C1128.47 35.152 1128 35.4933 1127.43 35.728C1126.88 35.9627 1126.26 36.08 1125.59 36.08ZM1135.15 36.08C1134.44 36.08 1133.81 35.9467 1133.28 35.68C1132.75 35.4133 1132.33 35.0133 1132.03 34.48C1131.74 33.9467 1131.6 33.28 1131.6 32.48V27.6H1132.74V32.352C1132.74 33.248 1132.95 33.9253 1133.39 34.384C1133.84 34.832 1134.46 35.056 1135.26 35.056C1135.85 35.056 1136.36 34.9387 1136.78 34.704C1137.22 34.4587 1137.55 34.1067 1137.78 33.648C1138.01 33.1893 1138.13 32.64 1138.13 32V27.6H1139.26V36H1138.18V33.696L1138.35 34.112C1138.08 34.7307 1137.67 35.216 1137.1 35.568C1136.55 35.9093 1135.9 36.08 1135.15 36.08ZM1144.69 36.08C1143.99 36.08 1143.34 35.984 1142.72 35.792C1142.1 35.5893 1141.61 35.3387 1141.26 35.04L1141.77 34.144C1142.11 34.4 1142.55 34.624 1143.09 34.816C1143.62 34.9973 1144.18 35.088 1144.77 35.088C1145.57 35.088 1146.14 34.9653 1146.49 34.72C1146.85 34.464 1147.02 34.128 1147.02 33.712C1147.02 33.4027 1146.92 33.1627 1146.72 32.992C1146.53 32.8107 1146.27 32.6773 1145.95 32.592C1145.63 32.496 1145.27 32.416 1144.88 32.352C1144.48 32.288 1144.09 32.2133 1143.69 32.128C1143.31 32.0427 1142.96 31.92 1142.64 31.76C1142.32 31.5893 1142.06 31.36 1141.85 31.072C1141.66 30.784 1141.57 30.4 1141.57 29.92C1141.57 29.4613 1141.69 29.0507 1141.95 28.688C1142.21 28.3253 1142.58 28.0427 1143.07 27.84C1143.57 27.6267 1144.18 27.52 1144.89 27.52C1145.44 27.52 1145.98 27.5947 1146.53 27.744C1147.07 27.8827 1147.52 28.0693 1147.87 28.304L1147.37 29.216C1147 28.96 1146.6 28.7787 1146.17 28.672C1145.75 28.5547 1145.32 28.496 1144.89 28.496C1144.14 28.496 1143.58 28.6293 1143.21 28.896C1142.86 29.152 1142.69 29.4827 1142.69 29.888C1142.69 30.208 1142.78 30.4587 1142.97 30.64C1143.18 30.8213 1143.44 30.9653 1143.76 31.072C1144.09 31.168 1144.45 31.248 1144.83 31.312C1145.22 31.376 1145.61 31.456 1146 31.552C1146.39 31.6373 1146.75 31.76 1147.07 31.92C1147.4 32.0693 1147.66 32.288 1147.85 32.576C1148.06 32.8533 1148.16 33.2213 1148.16 33.68C1148.16 34.1707 1148.02 34.5973 1147.74 34.96C1147.47 35.312 1147.08 35.5893 1146.56 35.792C1146.05 35.984 1145.42 36.08 1144.69 36.08ZM1156.69 36.08C1155.99 36.08 1155.34 35.984 1154.72 35.792C1154.1 35.5893 1153.61 35.3387 1153.26 35.04L1153.77 34.144C1154.11 34.4 1154.55 34.624 1155.09 34.816C1155.62 34.9973 1156.18 35.088 1156.77 35.088C1157.57 35.088 1158.14 34.9653 1158.49 34.72C1158.85 34.464 1159.02 34.128 1159.02 33.712C1159.02 33.4027 1158.92 33.1627 1158.72 32.992C1158.53 32.8107 1158.27 32.6773 1157.95 32.592C1157.63 32.496 1157.27 32.416 1156.88 32.352C1156.48 32.288 1156.09 32.2133 1155.69 32.128C1155.31 32.0427 1154.96 31.92 1154.64 31.76C1154.32 31.5893 1154.06 31.36 1153.85 31.072C1153.66 30.784 1153.57 30.4 1153.57 29.92C1153.57 29.4613 1153.69 29.0507 1153.95 28.688C1154.21 28.3253 1154.58 28.0427 1155.07 27.84C1155.57 27.6267 1156.18 27.52 1156.89 27.52C1157.44 27.52 1157.98 27.5947 1158.53 27.744C1159.07 27.8827 1159.52 28.0693 1159.87 28.304L1159.37 29.216C1159 28.96 1158.6 28.7787 1158.17 28.672C1157.75 28.5547 1157.32 28.496 1156.89 28.496C1156.14 28.496 1155.58 28.6293 1155.21 28.896C1154.86 29.152 1154.69 29.4827 1154.69 29.888C1154.69 30.208 1154.78 30.4587 1154.97 30.64C1155.18 30.8213 1155.44 30.9653 1155.76 31.072C1156.09 31.168 1156.45 31.248 1156.83 31.312C1157.22 31.376 1157.61 31.456 1158 31.552C1158.39 31.6373 1158.75 31.76 1159.07 31.92C1159.4 32.0693 1159.66 32.288 1159.85 32.576C1160.06 32.8533 1160.16 33.2213 1160.16 33.68C1160.16 34.1707 1160.02 34.5973 1159.74 34.96C1159.47 35.312 1159.08 35.5893 1158.56 35.792C1158.05 35.984 1157.42 36.08 1156.69 36.08ZM1165.67 36.08C1164.86 36.08 1164.12 35.8987 1163.47 35.536C1162.83 35.1627 1162.33 34.656 1161.95 34.016C1161.58 33.3653 1161.39 32.624 1161.39 31.792C1161.39 30.9493 1161.58 30.208 1161.95 29.568C1162.33 28.928 1162.83 28.4267 1163.47 28.064C1164.11 27.7013 1164.84 27.52 1165.67 27.52C1166.5 27.52 1167.23 27.7013 1167.87 28.064C1168.52 28.4267 1169.03 28.928 1169.39 29.568C1169.77 30.208 1169.95 30.9493 1169.95 31.792C1169.95 32.624 1169.77 33.3653 1169.39 34.016C1169.03 34.656 1168.52 35.1627 1167.87 35.536C1167.22 35.8987 1166.49 36.08 1165.67 36.08ZM1165.67 35.072C1166.27 35.072 1166.81 34.9387 1167.28 34.672C1167.75 34.3947 1168.12 34.0107 1168.39 33.52C1168.66 33.0187 1168.8 32.4427 1168.8 31.792C1168.8 31.1307 1168.66 30.5547 1168.39 30.064C1168.12 29.5733 1167.75 29.1947 1167.28 28.928C1166.81 28.6507 1166.28 28.512 1165.68 28.512C1165.08 28.512 1164.55 28.6507 1164.08 28.928C1163.61 29.1947 1163.24 29.5733 1162.96 30.064C1162.68 30.5547 1162.55 31.1307 1162.55 31.792C1162.55 32.4427 1162.68 33.0187 1162.96 33.52C1163.24 34.0107 1163.61 34.3947 1164.08 34.672C1164.55 34.9387 1165.08 35.072 1165.67 35.072ZM1176.56 27.52C1177.24 27.52 1177.84 27.6533 1178.35 27.92C1178.88 28.176 1179.28 28.5707 1179.57 29.104C1179.87 29.6373 1180.02 30.3093 1180.02 31.12V36H1178.88V31.232C1178.88 30.3467 1178.66 29.68 1178.21 29.232C1177.77 28.7733 1177.15 28.544 1176.35 28.544C1175.76 28.544 1175.23 28.6667 1174.79 28.912C1174.35 29.1467 1174.01 29.4933 1173.76 29.952C1173.53 30.4 1173.41 30.944 1173.41 31.584V36H1172.27V27.6H1173.36V29.904L1173.19 29.472C1173.45 28.864 1173.88 28.3893 1174.47 28.048C1175.05 27.696 1175.75 27.52 1176.56 27.52ZM1187.37 27.52C1188.06 27.52 1188.65 27.6533 1189.17 27.92C1189.69 28.176 1190.09 28.5707 1190.38 29.104C1190.68 29.6373 1190.83 30.3093 1190.83 31.12V36H1189.69V31.232C1189.69 30.3467 1189.47 29.68 1189.02 29.232C1188.58 28.7733 1187.97 28.544 1187.17 28.544C1186.57 28.544 1186.05 28.6667 1185.6 28.912C1185.16 29.1467 1184.82 29.4933 1184.57 29.952C1184.34 30.4 1184.22 30.944 1184.22 31.584V36H1183.09V24.128H1184.22V29.904L1184 29.472C1184.26 28.864 1184.69 28.3893 1185.28 28.048C1185.86 27.696 1186.56 27.52 1187.37 27.52ZM1197.32 36.08C1196.51 36.08 1195.78 35.8987 1195.13 35.536C1194.49 35.1627 1193.98 34.656 1193.61 34.016C1193.24 33.3653 1193.05 32.624 1193.05 31.792C1193.05 30.9493 1193.24 30.208 1193.61 29.568C1193.98 28.928 1194.49 28.4267 1195.13 28.064C1195.77 27.7013 1196.5 27.52 1197.32 27.52C1198.15 27.52 1198.89 27.7013 1199.53 28.064C1200.18 28.4267 1200.69 28.928 1201.05 29.568C1201.42 30.208 1201.61 30.9493 1201.61 31.792C1201.61 32.624 1201.42 33.3653 1201.05 34.016C1200.69 34.656 1200.18 35.1627 1199.53 35.536C1198.88 35.8987 1198.14 36.08 1197.32 36.08ZM1197.32 35.072C1197.93 35.072 1198.47 34.9387 1198.94 34.672C1199.41 34.3947 1199.78 34.0107 1200.04 33.52C1200.32 33.0187 1200.46 32.4427 1200.46 31.792C1200.46 31.1307 1200.32 30.5547 1200.04 30.064C1199.78 29.5733 1199.41 29.1947 1198.94 28.928C1198.47 28.6507 1197.94 28.512 1197.34 28.512C1196.74 28.512 1196.21 28.6507 1195.74 28.928C1195.27 29.1947 1194.9 29.5733 1194.62 30.064C1194.34 30.5547 1194.2 31.1307 1194.2 31.792C1194.2 32.4427 1194.34 33.0187 1194.62 33.52C1194.9 34.0107 1195.27 34.3947 1195.74 34.672C1196.21 34.9387 1196.74 35.072 1197.32 35.072ZM1206.19 36.08C1205.49 36.08 1204.84 35.984 1204.22 35.792C1203.6 35.5893 1203.11 35.3387 1202.76 35.04L1203.27 34.144C1203.61 34.4 1204.05 34.624 1204.59 34.816C1205.12 34.9973 1205.68 35.088 1206.27 35.088C1207.07 35.088 1207.64 34.9653 1207.99 34.72C1208.35 34.464 1208.52 34.128 1208.52 33.712C1208.52 33.4027 1208.42 33.1627 1208.22 32.992C1208.03 32.8107 1207.77 32.6773 1207.45 32.592C1207.13 32.496 1206.77 32.416 1206.38 32.352C1205.98 32.288 1205.59 32.2133 1205.19 32.128C1204.81 32.0427 1204.46 31.92 1204.14 31.76C1203.82 31.5893 1203.56 31.36 1203.35 31.072C1203.16 30.784 1203.07 30.4 1203.07 29.92C1203.07 29.4613 1203.19 29.0507 1203.45 28.688C1203.71 28.3253 1204.08 28.0427 1204.57 27.84C1205.07 27.6267 1205.68 27.52 1206.39 27.52C1206.94 27.52 1207.48 27.5947 1208.03 27.744C1208.57 27.8827 1209.02 28.0693 1209.37 28.304L1208.87 29.216C1208.5 28.96 1208.1 28.7787 1207.67 28.672C1207.25 28.5547 1206.82 28.496 1206.39 28.496C1205.64 28.496 1205.08 28.6293 1204.71 28.896C1204.36 29.152 1204.19 29.4827 1204.19 29.888C1204.19 30.208 1204.28 30.4587 1204.47 30.64C1204.68 30.8213 1204.94 30.9653 1205.26 31.072C1205.59 31.168 1205.95 31.248 1206.33 31.312C1206.72 31.376 1207.11 31.456 1207.5 31.552C1207.89 31.6373 1208.25 31.76 1208.57 31.92C1208.9 32.0693 1209.16 32.288 1209.35 32.576C1209.56 32.8533 1209.66 33.2213 1209.66 33.68C1209.66 34.1707 1209.52 34.5973 1209.24 34.96C1208.97 35.312 1208.58 35.5893 1208.06 35.792C1207.55 35.984 1206.92 36.08 1206.19 36.08Z" fill="#EFEFEF"/>
<circle cx="316.955" cy="280" r="15" fill="#E74C3C" fill-opacity="0.8"/>
<path d="M848.201 85V73.8H849.177L854.297 82.536H853.785L858.857 73.8H859.833V85H858.697V75.576H858.969L854.297 83.576H853.737L849.033 75.576H849.337V85H848.201ZM866.81 85.08C865.935 85.08 865.167 84.8987 864.506 84.536C863.845 84.1627 863.327 83.656 862.954 83.016C862.581 82.3653 862.394 81.624 862.394 80.792C862.394 79.96 862.57 79.224 862.922 78.584C863.285 77.944 863.775 77.4427 864.394 77.08C865.023 76.7067 865.727 76.52 866.506 76.52C867.295 76.52 867.994 76.7013 868.602 77.064C869.221 77.416 869.706 77.9173 870.058 78.568C870.41 79.208 870.586 79.9493 870.586 80.792C870.586 80.8453 870.581 80.904 870.57 80.968C870.57 81.0213 870.57 81.08 870.57 81.144H863.258V80.296H869.962L869.514 80.632C869.514 80.024 869.381 79.4853 869.114 79.016C868.858 78.536 868.506 78.1627 868.058 77.896C867.61 77.6293 867.093 77.496 866.506 77.496C865.93 77.496 865.413 77.6293 864.954 77.896C864.495 78.1627 864.138 78.536 863.882 79.016C863.626 79.496 863.498 80.0453 863.498 80.664V80.84C863.498 81.48 863.637 82.0453 863.914 82.536C864.202 83.016 864.597 83.3947 865.098 83.672C865.61 83.9387 866.191 84.072 866.842 84.072C867.354 84.072 867.829 83.9813 868.266 83.8C868.714 83.6187 869.098 83.3413 869.418 82.968L870.058 83.704C869.685 84.152 869.215 84.4933 868.65 84.728C868.095 84.9627 867.482 85.08 866.81 85.08ZM872.898 85V73.128H874.034V85H872.898ZM881.483 76.52C882.166 76.52 882.763 76.6533 883.275 76.92C883.798 77.176 884.203 77.5707 884.491 78.104C884.79 78.6373 884.939 79.3093 884.939 80.12V85H883.803V80.232C883.803 79.3467 883.579 78.68 883.131 78.232C882.694 77.7733 882.075 77.544 881.275 77.544C880.678 77.544 880.155 77.6667 879.707 77.912C879.27 78.1467 878.929 78.4933 878.683 78.952C878.449 79.4 878.331 79.944 878.331 80.584V85H877.195V73.128H878.331V78.904L878.107 78.472C878.374 77.864 878.801 77.3893 879.387 77.048C879.974 76.696 880.673 76.52 881.483 76.52ZM891.432 85.08C890.621 85.08 889.89 84.8987 889.24 84.536C888.6 84.1627 888.093 83.656 887.72 83.016C887.346 82.3653 887.16 81.624 887.16 80.792C887.16 79.9493 887.346 79.208 887.72 78.568C888.093 77.928 888.6 77.4267 889.24 77.064C889.88 76.7013 890.61 76.52 891.432 76.52C892.264 76.52 893 76.7013 893.64 77.064C894.29 77.4267 894.797 77.928 895.16 78.568C895.533 79.208 895.72 79.9493 895.72 80.792C895.72 81.624 895.533 82.3653 895.16 83.016C894.797 83.656 894.29 84.1627 893.64 84.536C892.989 84.8987 892.253 85.08 891.432 85.08ZM891.432 84.072C892.04 84.072 892.578 83.9387 893.048 83.672C893.517 83.3947 893.885 83.0107 894.152 82.52C894.429 82.0187 894.568 81.4427 894.568 80.792C894.568 80.1307 894.429 79.5547 894.152 79.064C893.885 78.5733 893.517 78.1947 893.048 77.928C892.578 77.6507 892.045 77.512 891.448 77.512C890.85 77.512 890.317 77.6507 889.848 77.928C889.378 78.1947 889.005 78.5733 888.728 79.064C888.45 79.5547 888.312 80.1307 888.312 80.792C888.312 81.4427 888.45 82.0187 888.728 82.52C889.005 83.0107 889.378 83.3947 889.848 83.672C890.317 83.9387 890.845 84.072 891.432 84.072ZM898.039 85V76.6H899.127V78.888L899.015 78.488C899.25 77.848 899.644 77.3627 900.199 77.032C900.754 76.6907 901.442 76.52 902.263 76.52V77.624C902.22 77.624 902.178 77.624 902.135 77.624C902.092 77.6133 902.05 77.608 902.007 77.608C901.122 77.608 900.428 77.88 899.927 78.424C899.426 78.9573 899.175 79.72 899.175 80.712V85H898.039ZM907.826 85.08C906.951 85.08 906.183 84.8987 905.522 84.536C904.86 84.1627 904.343 83.656 903.97 83.016C903.596 82.3653 903.41 81.624 903.41 80.792C903.41 79.96 903.586 79.224 903.938 78.584C904.3 77.944 904.791 77.4427 905.41 77.08C906.039 76.7067 906.743 76.52 907.522 76.52C908.311 76.52 909.01 76.7013 909.618 77.064C910.236 77.416 910.722 77.9173 911.074 78.568C911.426 79.208 911.602 79.9493 911.602 80.792C911.602 80.8453 911.596 80.904 911.586 80.968C911.586 81.0213 911.586 81.08 911.586 81.144H904.274V80.296H910.978L910.53 80.632C910.53 80.024 910.396 79.4853 910.13 79.016C909.874 78.536 909.522 78.1627 909.074 77.896C908.626 77.6293 908.108 77.496 907.522 77.496C906.946 77.496 906.428 77.6293 905.97 77.896C905.511 78.1627 905.154 78.536 904.898 79.016C904.642 79.496 904.514 80.0453 904.514 80.664V80.84C904.514 81.48 904.652 82.0453 904.93 82.536C905.218 83.016 905.612 83.3947 906.114 83.672C906.626 83.9387 907.207 84.072 907.858 84.072C908.37 84.072 908.844 83.9813 909.282 83.8C909.73 83.6187 910.114 83.3413 910.434 82.968L911.074 83.704C910.7 84.152 910.231 84.4933 909.666 84.728C909.111 84.9627 908.498 85.08 907.826 85.08ZM916.17 85.08C915.477 85.08 914.821 84.984 914.202 84.792C913.583 84.5893 913.098 84.3387 912.746 84.04L913.258 83.144C913.599 83.4 914.037 83.624 914.57 83.816C915.103 83.9973 915.663 84.088 916.25 84.088C917.05 84.088 917.626 83.9653 917.978 83.72C918.33 83.464 918.506 83.128 918.506 82.712C918.506 82.4027 918.405 82.1627 918.202 81.992C918.01 81.8107 917.754 81.6773 917.434 81.592C917.114 81.496 916.757 81.416 916.362 81.352C915.967 81.288 915.573 81.2133 915.178 81.128C914.794 81.0427 914.442 80.92 914.122 80.76C913.802 80.5893 913.541 80.36 913.338 80.072C913.146 79.784 913.05 79.4 913.05 78.92C913.05 78.4613 913.178 78.0507 913.434 77.688C913.69 77.3253 914.063 77.0427 914.554 76.84C915.055 76.6267 915.663 76.52 916.378 76.52C916.922 76.52 917.466 76.5947 918.01 76.744C918.554 76.8827 919.002 77.0693 919.354 77.304L918.858 78.216C918.485 77.96 918.085 77.7787 917.658 77.672C917.231 77.5547 916.805 77.496 916.378 77.496C915.621 77.496 915.061 77.6293 914.698 77.896C914.346 78.152 914.17 78.4827 914.17 78.888C914.17 79.208 914.266 79.4587 914.458 79.64C914.661 79.8213 914.922 79.9653 915.242 80.072C915.573 80.168 915.93 80.248 916.314 80.312C916.709 80.376 917.098 80.456 917.482 80.552C917.877 80.6373 918.234 80.76 918.554 80.92C918.885 81.0693 919.146 81.288 919.338 81.576C919.541 81.8533 919.642 82.2213 919.642 82.68C919.642 83.1707 919.503 83.5973 919.226 83.96C918.959 84.312 918.565 84.5893 918.042 84.792C917.53 84.984 916.906 85.08 916.17 85.08ZM930.25 85.08C929.525 85.08 928.869 84.9147 928.282 84.584C927.695 84.2427 927.226 83.7573 926.874 83.128C926.533 82.488 926.362 81.7093 926.362 80.792C926.362 79.8747 926.533 79.1013 926.874 78.472C927.215 77.832 927.679 77.3467 928.266 77.016C928.853 76.6853 929.514 76.52 930.25 76.52C931.05 76.52 931.765 76.7013 932.394 77.064C933.034 77.416 933.535 77.9173 933.898 78.568C934.261 79.208 934.442 79.9493 934.442 80.792C934.442 81.6453 934.261 82.392 933.898 83.032C933.535 83.672 933.034 84.1733 932.394 84.536C931.765 84.8987 931.05 85.08 930.25 85.08ZM925.914 88.104V76.6H927.002V79.128L926.89 80.808L927.05 82.504V88.104H925.914ZM930.17 84.072C930.767 84.072 931.301 83.9387 931.77 83.672C932.239 83.3947 932.613 83.0107 932.89 82.52C933.167 82.0187 933.306 81.4427 933.306 80.792C933.306 80.1413 933.167 79.5707 932.89 79.08C932.613 78.5893 932.239 78.2053 931.77 77.928C931.301 77.6507 930.767 77.512 930.17 77.512C929.573 77.512 929.034 77.6507 928.554 77.928C928.085 78.2053 927.711 78.5893 927.434 79.08C927.167 79.5707 927.034 80.1413 927.034 80.792C927.034 81.4427 927.167 82.0187 927.434 82.52C927.711 83.0107 928.085 83.3947 928.554 83.672C929.034 83.9387 929.573 84.072 930.17 84.072ZM936.758 85V76.6H937.846V78.888L937.734 78.488C937.968 77.848 938.363 77.3627 938.918 77.032C939.472 76.6907 940.16 76.52 940.982 76.52V77.624C940.939 77.624 940.896 77.624 940.854 77.624C940.811 77.6133 940.768 77.608 940.726 77.608C939.84 77.608 939.147 77.88 938.646 78.424C938.144 78.9573 937.894 79.72 937.894 80.712V85H936.758ZM947.694 85V83.144L947.646 82.84V79.736C947.646 79.0213 947.443 78.472 947.038 78.088C946.643 77.704 946.051 77.512 945.262 77.512C944.718 77.512 944.2 77.6027 943.71 77.784C943.219 77.9653 942.803 78.2053 942.462 78.504L941.95 77.656C942.376 77.2933 942.888 77.016 943.486 76.824C944.083 76.6213 944.712 76.52 945.374 76.52C946.462 76.52 947.299 76.792 947.886 77.336C948.483 77.8693 948.782 78.6853 948.782 79.784V85H947.694ZM944.798 85.08C944.168 85.08 943.619 84.9787 943.15 84.776C942.691 84.5627 942.339 84.2747 942.094 83.912C941.848 83.5387 941.726 83.112 941.726 82.632C941.726 82.1947 941.827 81.8 942.03 81.448C942.243 81.0853 942.584 80.7973 943.054 80.584C943.534 80.36 944.174 80.248 944.974 80.248H947.87V81.096H945.006C944.195 81.096 943.63 81.24 943.31 81.528C943 81.816 942.846 82.1733 942.846 82.6C942.846 83.08 943.032 83.464 943.406 83.752C943.779 84.04 944.302 84.184 944.974 84.184C945.614 84.184 946.163 84.04 946.622 83.752C947.091 83.4533 947.432 83.0267 947.646 82.472L947.902 83.256C947.688 83.8107 947.315 84.2533 946.782 84.584C946.259 84.9147 945.598 85.08 944.798 85.08ZM944.366 75.288L946.558 73.304H948.078L945.486 75.288H944.366ZM954.523 85.08C953.734 85.08 953.126 84.8667 952.699 84.44C952.272 84.0133 952.059 83.4107 952.059 82.632V74.744H953.195V82.568C953.195 83.0587 953.318 83.4373 953.563 83.704C953.819 83.9707 954.182 84.104 954.651 84.104C955.152 84.104 955.568 83.96 955.899 83.672L956.299 84.488C956.075 84.6907 955.803 84.84 955.483 84.936C955.174 85.032 954.854 85.08 954.523 85.08ZM950.555 77.544V76.6H955.755V77.544H950.555ZM958.367 85V76.6H959.503V85H958.367ZM958.943 74.744C958.708 74.744 958.511 74.664 958.351 74.504C958.191 74.344 958.111 74.152 958.111 73.928C958.111 73.704 958.191 73.5173 958.351 73.368C958.511 73.208 958.708 73.128 958.943 73.128C959.178 73.128 959.375 73.2027 959.535 73.352C959.695 73.5013 959.775 73.688 959.775 73.912C959.775 74.1467 959.695 74.344 959.535 74.504C959.386 74.664 959.188 74.744 958.943 74.744ZM966.152 85.08C965.32 85.08 964.573 84.8987 963.912 84.536C963.261 84.1627 962.749 83.656 962.376 83.016C962.003 82.3653 961.816 81.624 961.816 80.792C961.816 79.9493 962.003 79.208 962.376 78.568C962.749 77.928 963.261 77.4267 963.912 77.064C964.573 76.7013 965.32 76.52 966.152 76.52C966.867 76.52 967.512 76.6587 968.088 76.936C968.664 77.2133 969.117 77.6293 969.448 78.184L968.6 78.76C968.312 78.3333 967.955 78.0187 967.528 77.816C967.101 77.6133 966.637 77.512 966.136 77.512C965.539 77.512 965 77.6507 964.52 77.928C964.04 78.1947 963.661 78.5733 963.384 79.064C963.107 79.5547 962.968 80.1307 962.968 80.792C962.968 81.4533 963.107 82.0293 963.384 82.52C963.661 83.0107 964.04 83.3947 964.52 83.672C965 83.9387 965.539 84.072 966.136 84.072C966.637 84.072 967.101 83.9707 967.528 83.768C967.955 83.5653 968.312 83.256 968.6 82.84L969.448 83.416C969.117 83.96 968.664 84.376 968.088 84.664C967.512 84.9413 966.867 85.08 966.152 85.08ZM976.944 85V83.144L976.896 82.84V79.736C976.896 79.0213 976.693 78.472 976.288 78.088C975.893 77.704 975.301 77.512 974.512 77.512C973.968 77.512 973.45 77.6027 972.96 77.784C972.469 77.9653 972.053 78.2053 971.712 78.504L971.2 77.656C971.626 77.2933 972.138 77.016 972.736 76.824C973.333 76.6213 973.962 76.52 974.624 76.52C975.712 76.52 976.549 76.792 977.136 77.336C977.733 77.8693 978.032 78.6853 978.032 79.784V85H976.944ZM974.048 85.08C973.418 85.08 972.869 84.9787 972.4 84.776C971.941 84.5627 971.589 84.2747 971.344 83.912C971.098 83.5387 970.976 83.112 970.976 82.632C970.976 82.1947 971.077 81.8 971.28 81.448C971.493 81.0853 971.834 80.7973 972.304 80.584C972.784 80.36 973.424 80.248 974.224 80.248H977.12V81.096H974.256C973.445 81.096 972.88 81.24 972.56 81.528C972.25 81.816 972.096 82.1733 972.096 82.6C972.096 83.08 972.282 83.464 972.656 83.752C973.029 84.04 973.552 84.184 974.224 84.184C974.864 84.184 975.413 84.04 975.872 83.752C976.341 83.4533 976.682 83.0267 976.896 82.472L977.152 83.256C976.938 83.8107 976.565 84.2533 976.032 84.584C975.509 84.9147 974.848 85.08 974.048 85.08ZM983.373 85.08C982.68 85.08 982.024 84.984 981.405 84.792C980.786 84.5893 980.301 84.3387 979.949 84.04L980.461 83.144C980.802 83.4 981.24 83.624 981.773 83.816C982.306 83.9973 982.866 84.088 983.453 84.088C984.253 84.088 984.829 83.9653 985.181 83.72C985.533 83.464 985.709 83.128 985.709 82.712C985.709 82.4027 985.608 82.1627 985.405 81.992C985.213 81.8107 984.957 81.6773 984.637 81.592C984.317 81.496 983.96 81.416 983.565 81.352C983.17 81.288 982.776 81.2133 982.381 81.128C981.997 81.0427 981.645 80.92 981.325 80.76C981.005 80.5893 980.744 80.36 980.541 80.072C980.349 79.784 980.253 79.4 980.253 78.92C980.253 78.4613 980.381 78.0507 980.637 77.688C980.893 77.3253 981.266 77.0427 981.757 76.84C982.258 76.6267 982.866 76.52 983.581 76.52C984.125 76.52 984.669 76.5947 985.213 76.744C985.757 76.8827 986.205 77.0693 986.557 77.304L986.061 78.216C985.688 77.96 985.288 77.7787 984.861 77.672C984.434 77.5547 984.008 77.496 983.581 77.496C982.824 77.496 982.264 77.6293 981.901 77.896C981.549 78.152 981.373 78.4827 981.373 78.888C981.373 79.208 981.469 79.4587 981.661 79.64C981.864 79.8213 982.125 79.9653 982.445 80.072C982.776 80.168 983.133 80.248 983.517 80.312C983.912 80.376 984.301 80.456 984.685 80.552C985.08 80.6373 985.437 80.76 985.757 80.92C986.088 81.0693 986.349 81.288 986.541 81.576C986.744 81.8533 986.845 82.2213 986.845 82.68C986.845 83.1707 986.706 83.5973 986.429 83.96C986.162 84.312 985.768 84.5893 985.245 84.792C984.733 84.984 984.109 85.08 983.373 85.08ZM875.266 105.08C874.466 105.08 873.746 104.899 873.106 104.536C872.476 104.173 871.98 103.672 871.618 103.032C871.255 102.381 871.074 101.635 871.074 100.792C871.074 99.9387 871.255 99.192 871.618 98.552C871.98 97.912 872.476 97.416 873.106 97.064C873.746 96.7013 874.466 96.52 875.266 96.52C876.002 96.52 876.658 96.6853 877.234 97.016C877.82 97.3467 878.284 97.832 878.626 98.472C878.978 99.1013 879.154 99.8747 879.154 100.792C879.154 101.699 878.983 102.472 878.642 103.112C878.3 103.752 877.836 104.243 877.25 104.584C876.674 104.915 876.012 105.08 875.266 105.08ZM875.346 104.072C875.943 104.072 876.476 103.939 876.946 103.672C877.426 103.395 877.799 103.011 878.066 102.52C878.343 102.019 878.482 101.443 878.482 100.792C878.482 100.131 878.343 99.5547 878.066 99.064C877.799 98.5733 877.426 98.1947 876.946 97.928C876.476 97.6507 875.943 97.512 875.346 97.512C874.759 97.512 874.231 97.6507 873.762 97.928C873.292 98.1947 872.919 98.5733 872.642 99.064C872.364 99.5547 872.226 100.131 872.226 100.792C872.226 101.443 872.364 102.019 872.642 102.52C872.919 103.011 873.292 103.395 873.762 103.672C874.231 103.939 874.759 104.072 875.346 104.072ZM878.514 105V102.472L878.626 100.776L878.466 99.08V93.128H879.602V105H878.514ZM886.19 105.08C885.379 105.08 884.648 104.899 883.998 104.536C883.358 104.163 882.851 103.656 882.478 103.016C882.104 102.365 881.918 101.624 881.918 100.792C881.918 99.9493 882.104 99.208 882.478 98.568C882.851 97.928 883.358 97.4267 883.998 97.064C884.638 96.7013 885.368 96.52 886.19 96.52C887.022 96.52 887.758 96.7013 888.398 97.064C889.048 97.4267 889.555 97.928 889.918 98.568C890.291 99.208 890.478 99.9493 890.478 100.792C890.478 101.624 890.291 102.365 889.918 103.016C889.555 103.656 889.048 104.163 888.398 104.536C887.747 104.899 887.011 105.08 886.19 105.08ZM886.19 104.072C886.798 104.072 887.336 103.939 887.806 103.672C888.275 103.395 888.643 103.011 888.91 102.52C889.187 102.019 889.326 101.443 889.326 100.792C889.326 100.131 889.187 99.5547 888.91 99.064C888.643 98.5733 888.275 98.1947 887.806 97.928C887.336 97.6507 886.803 97.512 886.206 97.512C885.608 97.512 885.075 97.6507 884.606 97.928C884.136 98.1947 883.763 98.5733 883.486 99.064C883.208 99.5547 883.07 100.131 883.07 100.792C883.07 101.443 883.208 102.019 883.486 102.52C883.763 103.011 884.136 103.395 884.606 103.672C885.075 103.939 885.603 104.072 886.19 104.072ZM907.48 96.52C908.163 96.52 908.755 96.6533 909.256 96.92C909.768 97.176 910.163 97.5707 910.44 98.104C910.728 98.6373 910.872 99.3093 910.872 100.12V105H909.736V100.232C909.736 99.3467 909.523 98.68 909.096 98.232C908.68 97.7733 908.088 97.544 907.32 97.544C906.744 97.544 906.243 97.6667 905.816 97.912C905.4 98.1467 905.075 98.4933 904.84 98.952C904.616 99.4 904.504 99.944 904.504 100.584V105H903.368V100.232C903.368 99.3467 903.155 98.68 902.728 98.232C902.302 97.7733 901.704 97.544 900.936 97.544C900.371 97.544 899.875 97.6667 899.448 97.912C899.022 98.1467 898.691 98.4933 898.456 98.952C898.232 99.4 898.12 99.944 898.12 100.584V105H896.984V96.6H898.072V98.872L897.896 98.472C898.152 97.864 898.563 97.3893 899.128 97.048C899.704 96.696 900.382 96.52 901.16 96.52C901.982 96.52 902.68 96.728 903.256 97.144C903.832 97.5493 904.206 98.1627 904.376 98.984L903.928 98.808C904.174 98.1253 904.606 97.576 905.224 97.16C905.854 96.7333 906.606 96.52 907.48 96.52ZM917.521 105.08C916.646 105.08 915.878 104.899 915.217 104.536C914.556 104.163 914.038 103.656 913.665 103.016C913.292 102.365 913.105 101.624 913.105 100.792C913.105 99.96 913.281 99.224 913.633 98.584C913.996 97.944 914.486 97.4427 915.105 97.08C915.734 96.7067 916.438 96.52 917.217 96.52C918.006 96.52 918.705 96.7013 919.313 97.064C919.932 97.416 920.417 97.9173 920.769 98.568C921.121 99.208 921.297 99.9493 921.297 100.792C921.297 100.845 921.292 100.904 921.281 100.968C921.281 101.021 921.281 101.08 921.281 101.144H913.969V100.296H920.673L920.225 100.632C920.225 100.024 920.092 99.4853 919.825 99.016C919.569 98.536 919.217 98.1627 918.769 97.896C918.321 97.6293 917.804 97.496 917.217 97.496C916.641 97.496 916.124 97.6293 915.665 97.896C915.206 98.1627 914.849 98.536 914.593 99.016C914.337 99.496 914.209 100.045 914.209 100.664V100.84C914.209 101.48 914.348 102.045 914.625 102.536C914.913 103.016 915.308 103.395 915.809 103.672C916.321 103.939 916.902 104.072 917.553 104.072C918.065 104.072 918.54 103.981 918.977 103.8C919.425 103.619 919.809 103.341 920.129 102.968L920.769 103.704C920.396 104.152 919.926 104.493 919.361 104.728C918.806 104.963 918.193 105.08 917.521 105.08ZM923.609 105V96.6H924.697V98.888L924.585 98.488C924.82 97.848 925.215 97.3627 925.769 97.032C926.324 96.6907 927.012 96.52 927.833 96.52V97.624C927.791 97.624 927.748 97.624 927.705 97.624C927.663 97.6133 927.62 97.608 927.577 97.608C926.692 97.608 925.999 97.88 925.497 98.424C924.996 98.9573 924.745 99.72 924.745 100.712V105H923.609ZM933.316 105.08C932.484 105.08 931.737 104.899 931.076 104.536C930.425 104.163 929.913 103.656 929.54 103.016C929.167 102.365 928.98 101.624 928.98 100.792C928.98 99.9493 929.167 99.208 929.54 98.568C929.913 97.928 930.425 97.4267 931.076 97.064C931.737 96.7013 932.484 96.52 933.316 96.52C934.031 96.52 934.676 96.6587 935.252 96.936C935.828 97.2133 936.281 97.6293 936.612 98.184L935.764 98.76C935.476 98.3333 935.119 98.0187 934.692 97.816C934.265 97.6133 933.801 97.512 933.3 97.512C932.703 97.512 932.164 97.6507 931.684 97.928C931.204 98.1947 930.825 98.5733 930.548 99.064C930.271 99.5547 930.132 100.131 930.132 100.792C930.132 101.453 930.271 102.029 930.548 102.52C930.825 103.011 931.204 103.395 931.684 103.672C932.164 103.939 932.703 104.072 933.3 104.072C933.801 104.072 934.265 103.971 934.692 103.768C935.119 103.565 935.476 103.256 935.764 102.84L936.612 103.416C936.281 103.96 935.828 104.376 935.252 104.664C934.676 104.941 934.031 105.08 933.316 105.08ZM944.108 105V103.144L944.06 102.84V99.736C944.06 99.0213 943.857 98.472 943.452 98.088C943.057 97.704 942.465 97.512 941.676 97.512C941.132 97.512 940.614 97.6027 940.124 97.784C939.633 97.9653 939.217 98.2053 938.876 98.504L938.364 97.656C938.79 97.2933 939.302 97.016 939.9 96.824C940.497 96.6213 941.126 96.52 941.788 96.52C942.876 96.52 943.713 96.792 944.3 97.336C944.897 97.8693 945.196 98.6853 945.196 99.784V105H944.108ZM941.212 105.08C940.582 105.08 940.033 104.979 939.564 104.776C939.105 104.563 938.753 104.275 938.508 103.912C938.262 103.539 938.14 103.112 938.14 102.632C938.14 102.195 938.241 101.8 938.444 101.448C938.657 101.085 938.998 100.797 939.468 100.584C939.948 100.36 940.588 100.248 941.388 100.248H944.284V101.096H941.42C940.609 101.096 940.044 101.24 939.724 101.528C939.414 101.816 939.26 102.173 939.26 102.6C939.26 103.08 939.446 103.464 939.82 103.752C940.193 104.04 940.716 104.184 941.388 104.184C942.028 104.184 942.577 104.04 943.036 103.752C943.505 103.453 943.846 103.027 944.06 102.472L944.316 103.256C944.102 103.811 943.729 104.253 943.196 104.584C942.673 104.915 942.012 105.08 941.212 105.08ZM951.625 105.08C950.825 105.08 950.105 104.899 949.465 104.536C948.836 104.173 948.34 103.672 947.977 103.032C947.614 102.381 947.433 101.635 947.433 100.792C947.433 99.9387 947.614 99.192 947.977 98.552C948.34 97.912 948.836 97.416 949.465 97.064C950.105 96.7013 950.825 96.52 951.625 96.52C952.361 96.52 953.017 96.6853 953.593 97.016C954.18 97.3467 954.644 97.832 954.985 98.472C955.337 99.1013 955.513 99.8747 955.513 100.792C955.513 101.699 955.342 102.472 955.001 103.112C954.66 103.752 954.196 104.243 953.609 104.584C953.033 104.915 952.372 105.08 951.625 105.08ZM951.705 104.072C952.302 104.072 952.836 103.939 953.305 103.672C953.785 103.395 954.158 103.011 954.425 102.52C954.702 102.019 954.841 101.443 954.841 100.792C954.841 100.131 954.702 99.5547 954.425 99.064C954.158 98.5733 953.785 98.1947 953.305 97.928C952.836 97.6507 952.302 97.512 951.705 97.512C951.118 97.512 950.59 97.6507 950.121 97.928C949.652 98.1947 949.278 98.5733 949.001 99.064C948.724 99.5547 948.585 100.131 948.585 100.792C948.585 101.443 948.724 102.019 949.001 102.52C949.278 103.011 949.652 103.395 950.121 103.672C950.59 103.939 951.118 104.072 951.705 104.072ZM954.873 105V102.472L954.985 100.776L954.825 99.08V93.128H955.961V105H954.873ZM962.549 105.08C961.738 105.08 961.008 104.899 960.357 104.536C959.717 104.163 959.21 103.656 958.837 103.016C958.464 102.365 958.277 101.624 958.277 100.792C958.277 99.9493 958.464 99.208 958.837 98.568C959.21 97.928 959.717 97.4267 960.357 97.064C960.997 96.7013 961.728 96.52 962.549 96.52C963.381 96.52 964.117 96.7013 964.757 97.064C965.408 97.4267 965.914 97.928 966.277 98.568C966.65 99.208 966.837 99.9493 966.837 100.792C966.837 101.624 966.65 102.365 966.277 103.016C965.914 103.656 965.408 104.163 964.757 104.536C964.106 104.899 963.37 105.08 962.549 105.08ZM962.549 104.072C963.157 104.072 963.696 103.939 964.165 103.672C964.634 103.395 965.002 103.011 965.269 102.52C965.546 102.019 965.685 101.443 965.685 100.792C965.685 100.131 965.546 99.5547 965.269 99.064C965.002 98.5733 964.634 98.1947 964.165 97.928C963.696 97.6507 963.162 97.512 962.565 97.512C961.968 97.512 961.434 97.6507 960.965 97.928C960.496 98.1947 960.122 98.5733 959.845 99.064C959.568 99.5547 959.429 100.131 959.429 100.792C959.429 101.443 959.568 102.019 959.845 102.52C960.122 103.011 960.496 103.395 960.965 103.672C961.434 103.939 961.962 104.072 962.549 104.072Z" fill="#EFEFEF"/>
<circle cx="607.955" cy="206" r="15" fill="#E74C3C" fill-opacity="0.8"/>
<path d="M544.955 181V170.824H541.019V169.8H550.075V170.824H546.139V181H544.955ZM554.419 181.08C553.545 181.08 552.777 180.899 552.115 180.536C551.454 180.163 550.937 179.656 550.563 179.016C550.19 178.365 550.003 177.624 550.003 176.792C550.003 175.96 550.179 175.224 550.531 174.584C550.894 173.944 551.385 173.443 552.003 173.08C552.633 172.707 553.337 172.52 554.115 172.52C554.905 172.52 555.603 172.701 556.211 173.064C556.83 173.416 557.315 173.917 557.667 174.568C558.019 175.208 558.195 175.949 558.195 176.792C558.195 176.845 558.19 176.904 558.179 176.968C558.179 177.021 558.179 177.08 558.179 177.144H550.867V176.296H557.571L557.123 176.632C557.123 176.024 556.99 175.485 556.723 175.016C556.467 174.536 556.115 174.163 555.667 173.896C555.219 173.629 554.702 173.496 554.115 173.496C553.539 173.496 553.022 173.629 552.563 173.896C552.105 174.163 551.747 174.536 551.491 175.016C551.235 175.496 551.107 176.045 551.107 176.664V176.84C551.107 177.48 551.246 178.045 551.523 178.536C551.811 179.016 552.206 179.395 552.707 179.672C553.219 179.939 553.801 180.072 554.451 180.072C554.963 180.072 555.438 179.981 555.875 179.8C556.323 179.619 556.707 179.341 557.027 178.968L557.667 179.704C557.294 180.152 556.825 180.493 556.259 180.728C555.705 180.963 555.091 181.08 554.419 181.08ZM563.932 181.08C563.121 181.08 562.39 180.899 561.74 180.536C561.1 180.163 560.593 179.656 560.22 179.016C559.846 178.365 559.66 177.624 559.66 176.792C559.66 175.949 559.846 175.208 560.22 174.568C560.593 173.928 561.1 173.427 561.74 173.064C562.38 172.701 563.11 172.52 563.932 172.52C564.764 172.52 565.5 172.701 566.14 173.064C566.79 173.427 567.297 173.928 567.66 174.568C568.033 175.208 568.22 175.949 568.22 176.792C568.22 177.624 568.033 178.365 567.66 179.016C567.297 179.656 566.79 180.163 566.14 180.536C565.489 180.899 564.753 181.08 563.932 181.08ZM563.932 180.072C564.54 180.072 565.078 179.939 565.548 179.672C566.017 179.395 566.385 179.011 566.652 178.52C566.929 178.019 567.068 177.443 567.068 176.792C567.068 176.131 566.929 175.555 566.652 175.064C566.385 174.573 566.017 174.195 565.548 173.928C565.078 173.651 564.545 173.512 563.948 173.512C563.35 173.512 562.817 173.651 562.348 173.928C561.878 174.195 561.505 174.573 561.228 175.064C560.95 175.555 560.812 176.131 560.812 176.792C560.812 177.443 560.95 178.019 561.228 178.52C561.505 179.011 561.878 179.395 562.348 179.672C562.817 179.939 563.345 180.072 563.932 180.072ZM570.539 181V172.6H571.627V174.888L571.515 174.488C571.75 173.848 572.144 173.363 572.699 173.032C573.254 172.691 573.942 172.52 574.763 172.52V173.624C574.72 173.624 574.678 173.624 574.635 173.624C574.592 173.613 574.55 173.608 574.507 173.608C573.622 173.608 572.928 173.88 572.427 174.424C571.926 174.957 571.675 175.72 571.675 176.712V181H570.539ZM576.836 181V172.6H577.972V181H576.836ZM577.412 170.744C577.177 170.744 576.98 170.664 576.82 170.504C576.66 170.344 576.58 170.152 576.58 169.928C576.58 169.704 576.66 169.517 576.82 169.368C576.98 169.208 577.177 169.128 577.412 169.128C577.646 169.128 577.844 169.203 578.004 169.352C578.164 169.501 578.244 169.688 578.244 169.912C578.244 170.147 578.164 170.344 578.004 170.504C577.854 170.664 577.657 170.744 577.412 170.744ZM586.397 181V179.144L586.349 178.84V175.736C586.349 175.021 586.146 174.472 585.741 174.088C585.346 173.704 584.754 173.512 583.965 173.512C583.421 173.512 582.903 173.603 582.413 173.784C581.922 173.965 581.506 174.205 581.165 174.504L580.653 173.656C581.079 173.293 581.591 173.016 582.189 172.824C582.786 172.621 583.415 172.52 584.077 172.52C585.165 172.52 586.002 172.792 586.589 173.336C587.186 173.869 587.485 174.685 587.485 175.784V181H586.397ZM583.501 181.08C582.871 181.08 582.322 180.979 581.853 180.776C581.394 180.563 581.042 180.275 580.797 179.912C580.551 179.539 580.429 179.112 580.429 178.632C580.429 178.195 580.53 177.8 580.733 177.448C580.946 177.085 581.287 176.797 581.757 176.584C582.237 176.36 582.877 176.248 583.677 176.248H586.573V177.096H583.709C582.898 177.096 582.333 177.24 582.013 177.528C581.703 177.816 581.549 178.173 581.549 178.6C581.549 179.08 581.735 179.464 582.109 179.752C582.482 180.04 583.005 180.184 583.677 180.184C584.317 180.184 584.866 180.04 585.325 179.752C585.794 179.453 586.135 179.027 586.349 178.472L586.605 179.256C586.391 179.811 586.018 180.253 585.485 180.584C584.962 180.915 584.301 181.08 583.501 181.08ZM592.826 181.08C592.133 181.08 591.477 180.984 590.858 180.792C590.24 180.589 589.754 180.339 589.402 180.04L589.914 179.144C590.256 179.4 590.693 179.624 591.226 179.816C591.76 179.997 592.32 180.088 592.906 180.088C593.706 180.088 594.282 179.965 594.634 179.72C594.986 179.464 595.162 179.128 595.162 178.712C595.162 178.403 595.061 178.163 594.858 177.992C594.666 177.811 594.41 177.677 594.09 177.592C593.77 177.496 593.413 177.416 593.018 177.352C592.624 177.288 592.229 177.213 591.834 177.128C591.45 177.043 591.098 176.92 590.778 176.76C590.458 176.589 590.197 176.36 589.994 176.072C589.802 175.784 589.706 175.4 589.706 174.92C589.706 174.461 589.834 174.051 590.09 173.688C590.346 173.325 590.72 173.043 591.21 172.84C591.712 172.627 592.32 172.52 593.034 172.52C593.578 172.52 594.122 172.595 594.666 172.744C595.21 172.883 595.658 173.069 596.01 173.304L595.514 174.216C595.141 173.96 594.741 173.779 594.314 173.672C593.888 173.555 593.461 173.496 593.034 173.496C592.277 173.496 591.717 173.629 591.354 173.896C591.002 174.152 590.826 174.483 590.826 174.888C590.826 175.208 590.922 175.459 591.114 175.64C591.317 175.821 591.578 175.965 591.898 176.072C592.229 176.168 592.586 176.248 592.97 176.312C593.365 176.376 593.754 176.456 594.138 176.552C594.533 176.637 594.89 176.76 595.21 176.92C595.541 177.069 595.802 177.288 595.994 177.576C596.197 177.853 596.298 178.221 596.298 178.68C596.298 179.171 596.16 179.597 595.882 179.96C595.616 180.312 595.221 180.589 594.698 180.792C594.186 180.984 593.562 181.08 592.826 181.08ZM606.138 181.08C605.264 181.08 604.496 180.899 603.834 180.536C603.173 180.163 602.656 179.656 602.282 179.016C601.909 178.365 601.722 177.624 601.722 176.792C601.722 175.96 601.898 175.224 602.25 174.584C602.613 173.944 603.104 173.443 603.722 173.08C604.352 172.707 605.056 172.52 605.834 172.52C606.624 172.52 607.322 172.701 607.93 173.064C608.549 173.416 609.034 173.917 609.386 174.568C609.738 175.208 609.914 175.949 609.914 176.792C609.914 176.845 609.909 176.904 609.898 176.968C609.898 177.021 609.898 177.08 609.898 177.144H602.586V176.296H609.29L608.842 176.632C608.842 176.024 608.709 175.485 608.442 175.016C608.186 174.536 607.834 174.163 607.386 173.896C606.938 173.629 606.421 173.496 605.834 173.496C605.258 173.496 604.741 173.629 604.282 173.896C603.824 174.163 603.466 174.536 603.21 175.016C602.954 175.496 602.826 176.045 602.826 176.664V176.84C602.826 177.48 602.965 178.045 603.242 178.536C603.53 179.016 603.925 179.395 604.426 179.672C604.938 179.939 605.52 180.072 606.17 180.072C606.682 180.072 607.157 179.981 607.594 179.8C608.042 179.619 608.426 179.341 608.746 178.968L609.386 179.704C609.013 180.152 608.544 180.493 607.978 180.728C607.424 180.963 606.81 181.08 606.138 181.08ZM620.75 181.08C620.025 181.08 619.369 180.915 618.782 180.584C618.195 180.243 617.726 179.757 617.374 179.128C617.033 178.488 616.862 177.709 616.862 176.792C616.862 175.875 617.033 175.101 617.374 174.472C617.715 173.832 618.179 173.347 618.766 173.016C619.353 172.685 620.014 172.52 620.75 172.52C621.55 172.52 622.265 172.701 622.894 173.064C623.534 173.416 624.035 173.917 624.398 174.568C624.761 175.208 624.942 175.949 624.942 176.792C624.942 177.645 624.761 178.392 624.398 179.032C624.035 179.672 623.534 180.173 622.894 180.536C622.265 180.899 621.55 181.08 620.75 181.08ZM616.414 184.104V172.6H617.502V175.128L617.39 176.808L617.55 178.504V184.104H616.414ZM620.67 180.072C621.267 180.072 621.801 179.939 622.27 179.672C622.739 179.395 623.113 179.011 623.39 178.52C623.667 178.019 623.806 177.443 623.806 176.792C623.806 176.141 623.667 175.571 623.39 175.08C623.113 174.589 622.739 174.205 622.27 173.928C621.801 173.651 621.267 173.512 620.67 173.512C620.073 173.512 619.534 173.651 619.054 173.928C618.585 174.205 618.211 174.589 617.934 175.08C617.667 175.571 617.534 176.141 617.534 176.792C617.534 177.443 617.667 178.019 617.934 178.52C618.211 179.011 618.585 179.395 619.054 179.672C619.534 179.939 620.073 180.072 620.67 180.072ZM627.258 181V172.6H628.346V174.888L628.234 174.488C628.468 173.848 628.863 173.363 629.418 173.032C629.972 172.691 630.66 172.52 631.482 172.52V173.624C631.439 173.624 631.396 173.624 631.354 173.624C631.311 173.613 631.268 173.608 631.226 173.608C630.34 173.608 629.647 173.88 629.146 174.424C628.644 174.957 628.394 175.72 628.394 176.712V181H627.258ZM638.194 181V179.144L638.146 178.84V175.736C638.146 175.021 637.943 174.472 637.538 174.088C637.143 173.704 636.551 173.512 635.762 173.512C635.218 173.512 634.7 173.603 634.21 173.784C633.719 173.965 633.303 174.205 632.962 174.504L632.45 173.656C632.876 173.293 633.388 173.016 633.986 172.824C634.583 172.621 635.212 172.52 635.874 172.52C636.962 172.52 637.799 172.792 638.386 173.336C638.983 173.869 639.282 174.685 639.282 175.784V181H638.194ZM635.298 181.08C634.668 181.08 634.119 180.979 633.65 180.776C633.191 180.563 632.839 180.275 632.594 179.912C632.348 179.539 632.226 179.112 632.226 178.632C632.226 178.195 632.327 177.8 632.53 177.448C632.743 177.085 633.084 176.797 633.554 176.584C634.034 176.36 634.674 176.248 635.474 176.248H638.37V177.096H635.506C634.695 177.096 634.13 177.24 633.81 177.528C633.5 177.816 633.346 178.173 633.346 178.6C633.346 179.08 633.532 179.464 633.906 179.752C634.279 180.04 634.802 180.184 635.474 180.184C636.114 180.184 636.663 180.04 637.122 179.752C637.591 179.453 637.932 179.027 638.146 178.472L638.402 179.256C638.188 179.811 637.815 180.253 637.282 180.584C636.759 180.915 636.098 181.08 635.298 181.08ZM634.866 171.288L637.058 169.304H638.578L635.986 171.288H634.866ZM645.023 181.08C644.234 181.08 643.626 180.867 643.199 180.44C642.772 180.013 642.559 179.411 642.559 178.632V170.744H643.695V178.568C643.695 179.059 643.818 179.437 644.063 179.704C644.319 179.971 644.682 180.104 645.151 180.104C645.652 180.104 646.068 179.96 646.399 179.672L646.799 180.488C646.575 180.691 646.303 180.84 645.983 180.936C645.674 181.032 645.354 181.08 645.023 181.08ZM641.055 173.544V172.6H646.255V173.544H641.055ZM648.867 181V172.6H650.003V181H648.867ZM649.443 170.744C649.208 170.744 649.011 170.664 648.851 170.504C648.691 170.344 648.611 170.152 648.611 169.928C648.611 169.704 648.691 169.517 648.851 169.368C649.011 169.208 649.208 169.128 649.443 169.128C649.678 169.128 649.875 169.203 650.035 169.352C650.195 169.501 650.275 169.688 650.275 169.912C650.275 170.147 650.195 170.344 650.035 170.504C649.886 170.664 649.688 170.744 649.443 170.744ZM656.652 181.08C655.82 181.08 655.073 180.899 654.412 180.536C653.761 180.163 653.249 179.656 652.876 179.016C652.503 178.365 652.316 177.624 652.316 176.792C652.316 175.949 652.503 175.208 652.876 174.568C653.249 173.928 653.761 173.427 654.412 173.064C655.073 172.701 655.82 172.52 656.652 172.52C657.367 172.52 658.012 172.659 658.588 172.936C659.164 173.213 659.617 173.629 659.948 174.184L659.1 174.76C658.812 174.333 658.455 174.019 658.028 173.816C657.601 173.613 657.137 173.512 656.636 173.512C656.039 173.512 655.5 173.651 655.02 173.928C654.54 174.195 654.161 174.573 653.884 175.064C653.607 175.555 653.468 176.131 653.468 176.792C653.468 177.453 653.607 178.029 653.884 178.52C654.161 179.011 654.54 179.395 655.02 179.672C655.5 179.939 656.039 180.072 656.636 180.072C657.137 180.072 657.601 179.971 658.028 179.768C658.455 179.565 658.812 179.256 659.1 178.84L659.948 179.416C659.617 179.96 659.164 180.376 658.588 180.664C658.012 180.941 657.367 181.08 656.652 181.08ZM667.444 181V179.144L667.396 178.84V175.736C667.396 175.021 667.193 174.472 666.788 174.088C666.393 173.704 665.801 173.512 665.012 173.512C664.468 173.512 663.95 173.603 663.46 173.784C662.969 173.965 662.553 174.205 662.212 174.504L661.7 173.656C662.126 173.293 662.638 173.016 663.236 172.824C663.833 172.621 664.462 172.52 665.124 172.52C666.212 172.52 667.049 172.792 667.636 173.336C668.233 173.869 668.532 174.685 668.532 175.784V181H667.444ZM664.548 181.08C663.918 181.08 663.369 180.979 662.9 180.776C662.441 180.563 662.089 180.275 661.844 179.912C661.598 179.539 661.476 179.112 661.476 178.632C661.476 178.195 661.577 177.8 661.78 177.448C661.993 177.085 662.334 176.797 662.804 176.584C663.284 176.36 663.924 176.248 664.724 176.248H667.62V177.096H664.756C663.945 177.096 663.38 177.24 663.06 177.528C662.75 177.816 662.596 178.173 662.596 178.6C662.596 179.08 662.782 179.464 663.156 179.752C663.529 180.04 664.052 180.184 664.724 180.184C665.364 180.184 665.913 180.04 666.372 179.752C666.841 179.453 667.182 179.027 667.396 178.472L667.652 179.256C667.438 179.811 667.065 180.253 666.532 180.584C666.009 180.915 665.348 181.08 664.548 181.08ZM673.873 181.08C673.18 181.08 672.524 180.984 671.905 180.792C671.286 180.589 670.801 180.339 670.449 180.04L670.961 179.144C671.302 179.4 671.74 179.624 672.273 179.816C672.806 179.997 673.366 180.088 673.953 180.088C674.753 180.088 675.329 179.965 675.681 179.72C676.033 179.464 676.209 179.128 676.209 178.712C676.209 178.403 676.108 178.163 675.905 177.992C675.713 177.811 675.457 177.677 675.137 177.592C674.817 177.496 674.46 177.416 674.065 177.352C673.67 177.288 673.276 177.213 672.881 177.128C672.497 177.043 672.145 176.92 671.825 176.76C671.505 176.589 671.244 176.36 671.041 176.072C670.849 175.784 670.753 175.4 670.753 174.92C670.753 174.461 670.881 174.051 671.137 173.688C671.393 173.325 671.766 173.043 672.257 172.84C672.758 172.627 673.366 172.52 674.081 172.52C674.625 172.52 675.169 172.595 675.713 172.744C676.257 172.883 676.705 173.069 677.057 173.304L676.561 174.216C676.188 173.96 675.788 173.779 675.361 173.672C674.934 173.555 674.508 173.496 674.081 173.496C673.324 173.496 672.764 173.629 672.401 173.896C672.049 174.152 671.873 174.483 671.873 174.888C671.873 175.208 671.969 175.459 672.161 175.64C672.364 175.821 672.625 175.965 672.945 176.072C673.276 176.168 673.633 176.248 674.017 176.312C674.412 176.376 674.801 176.456 675.185 176.552C675.58 176.637 675.937 176.76 676.257 176.92C676.588 177.069 676.849 177.288 677.041 177.576C677.244 177.853 677.345 178.221 677.345 178.68C677.345 179.171 677.206 179.597 676.929 179.96C676.662 180.312 676.268 180.589 675.745 180.792C675.233 180.984 674.609 181.08 673.873 181.08Z" fill="#EFEFEF"/>
<circle cx="977" cy="132" r="15" fill="#E74C3C" fill-opacity="0.8"/>
<path d="M260.155 229.224H266.075V230.248H260.155V229.224ZM260.283 235H259.099V223.8H266.779V224.824H260.283V235ZM272.175 235.08C271.46 235.08 270.836 234.947 270.303 234.68C269.77 234.413 269.354 234.013 269.055 233.48C268.767 232.947 268.623 232.28 268.623 231.48V226.6H269.759V231.352C269.759 232.248 269.978 232.925 270.415 233.384C270.863 233.832 271.487 234.056 272.287 234.056C272.874 234.056 273.38 233.939 273.807 233.704C274.244 233.459 274.575 233.107 274.799 232.648C275.034 232.189 275.151 231.64 275.151 231V226.6H276.287V235H275.199V232.696L275.375 233.112C275.108 233.731 274.692 234.216 274.127 234.568C273.572 234.909 272.922 235.08 272.175 235.08ZM283.741 226.52C284.424 226.52 285.021 226.653 285.533 226.92C286.056 227.176 286.461 227.571 286.749 228.104C287.048 228.637 287.197 229.309 287.197 230.12V235H286.061V230.232C286.061 229.347 285.837 228.68 285.389 228.232C284.952 227.773 284.333 227.544 283.533 227.544C282.936 227.544 282.413 227.667 281.965 227.912C281.528 228.147 281.186 228.493 280.941 228.952C280.706 229.4 280.589 229.944 280.589 230.584V235H279.453V226.6H280.541V228.904L280.365 228.472C280.632 227.864 281.058 227.389 281.645 227.048C282.232 226.696 282.93 226.52 283.741 226.52ZM293.61 235.08C292.81 235.08 292.09 234.899 291.45 234.536C290.82 234.173 290.324 233.672 289.962 233.032C289.599 232.381 289.418 231.635 289.418 230.792C289.418 229.939 289.599 229.192 289.962 228.552C290.324 227.912 290.82 227.416 291.45 227.064C292.09 226.701 292.81 226.52 293.61 226.52C294.346 226.52 295.002 226.685 295.578 227.016C296.164 227.347 296.628 227.832 296.97 228.472C297.322 229.101 297.498 229.875 297.498 230.792C297.498 231.699 297.327 232.472 296.986 233.112C296.644 233.752 296.18 234.243 295.594 234.584C295.018 234.915 294.356 235.08 293.61 235.08ZM293.69 234.072C294.287 234.072 294.82 233.939 295.29 233.672C295.77 233.395 296.143 233.011 296.41 232.52C296.687 232.019 296.826 231.443 296.826 230.792C296.826 230.131 296.687 229.555 296.41 229.064C296.143 228.573 295.77 228.195 295.29 227.928C294.82 227.651 294.287 227.512 293.69 227.512C293.103 227.512 292.575 227.651 292.106 227.928C291.636 228.195 291.263 228.573 290.986 229.064C290.708 229.555 290.57 230.131 290.57 230.792C290.57 231.443 290.708 232.019 290.986 232.52C291.263 233.011 291.636 233.395 292.106 233.672C292.575 233.939 293.103 234.072 293.69 234.072ZM296.858 235V232.472L296.97 230.776L296.81 229.08V223.128H297.946V235H296.858ZM306.373 235V233.144L306.325 232.84V229.736C306.325 229.021 306.123 228.472 305.717 228.088C305.323 227.704 304.731 227.512 303.941 227.512C303.397 227.512 302.88 227.603 302.389 227.784C301.899 227.965 301.483 228.205 301.141 228.504L300.629 227.656C301.056 227.293 301.568 227.016 302.165 226.824C302.763 226.621 303.392 226.52 304.053 226.52C305.141 226.52 305.979 226.792 306.565 227.336C307.163 227.869 307.461 228.685 307.461 229.784V235H306.373ZM303.477 235.08C302.848 235.08 302.299 234.979 301.829 234.776C301.371 234.563 301.019 234.275 300.773 233.912C300.528 233.539 300.405 233.112 300.405 232.632C300.405 232.195 300.507 231.8 300.709 231.448C300.923 231.085 301.264 230.797 301.733 230.584C302.213 230.36 302.853 230.248 303.653 230.248H306.549V231.096H303.685C302.875 231.096 302.309 231.24 301.989 231.528C301.68 231.816 301.525 232.173 301.525 232.6C301.525 233.08 301.712 233.464 302.085 233.752C302.459 234.04 302.981 234.184 303.653 234.184C304.293 234.184 304.843 234.04 305.301 233.752C305.771 233.453 306.112 233.027 306.325 232.472L306.581 233.256C306.368 233.811 305.995 234.253 305.461 234.584C304.939 234.915 304.277 235.08 303.477 235.08ZM321.043 226.52C321.725 226.52 322.317 226.653 322.819 226.92C323.331 227.176 323.725 227.571 324.003 228.104C324.291 228.637 324.435 229.309 324.435 230.12V235H323.299V230.232C323.299 229.347 323.085 228.68 322.659 228.232C322.243 227.773 321.651 227.544 320.883 227.544C320.307 227.544 319.805 227.667 319.379 227.912C318.963 228.147 318.637 228.493 318.403 228.952C318.179 229.4 318.067 229.944 318.067 230.584V235H316.931V230.232C316.931 229.347 316.717 228.68 316.291 228.232C315.864 227.773 315.267 227.544 314.499 227.544C313.933 227.544 313.437 227.667 313.011 227.912C312.584 228.147 312.253 228.493 312.019 228.952C311.795 229.4 311.683 229.944 311.683 230.584V235H310.547V226.6H311.635V228.872L311.459 228.472C311.715 227.864 312.125 227.389 312.691 227.048C313.267 226.696 313.944 226.52 314.723 226.52C315.544 226.52 316.243 226.728 316.819 227.144C317.395 227.549 317.768 228.163 317.939 228.984L317.491 228.808C317.736 228.125 318.168 227.576 318.787 227.16C319.416 226.733 320.168 226.52 321.043 226.52ZM331.084 235.08C330.209 235.08 329.441 234.899 328.78 234.536C328.118 234.163 327.601 233.656 327.228 233.016C326.854 232.365 326.668 231.624 326.668 230.792C326.668 229.96 326.844 229.224 327.196 228.584C327.558 227.944 328.049 227.443 328.668 227.08C329.297 226.707 330.001 226.52 330.78 226.52C331.569 226.52 332.268 226.701 332.876 227.064C333.494 227.416 333.98 227.917 334.332 228.568C334.684 229.208 334.86 229.949 334.86 230.792C334.86 230.845 334.854 230.904 334.844 230.968C334.844 231.021 334.844 231.08 334.844 231.144H327.532V230.296H334.236L333.788 230.632C333.788 230.024 333.654 229.485 333.388 229.016C333.132 228.536 332.78 228.163 332.332 227.896C331.884 227.629 331.366 227.496 330.78 227.496C330.204 227.496 329.686 227.629 329.228 227.896C328.769 228.163 328.412 228.536 328.156 229.016C327.9 229.496 327.772 230.045 327.772 230.664V230.84C327.772 231.48 327.91 232.045 328.188 232.536C328.476 233.016 328.87 233.395 329.372 233.672C329.884 233.939 330.465 234.072 331.116 234.072C331.628 234.072 332.102 233.981 332.54 233.8C332.988 233.619 333.372 233.341 333.692 232.968L334.332 233.704C333.958 234.152 333.489 234.493 332.924 234.728C332.369 234.963 331.756 235.08 331.084 235.08ZM341.46 226.52C342.142 226.52 342.74 226.653 343.252 226.92C343.774 227.176 344.18 227.571 344.468 228.104C344.766 228.637 344.916 229.309 344.916 230.12V235H343.78V230.232C343.78 229.347 343.556 228.68 343.108 228.232C342.67 227.773 342.052 227.544 341.252 227.544C340.654 227.544 340.132 227.667 339.684 227.912C339.246 228.147 338.905 228.493 338.66 228.952C338.425 229.4 338.308 229.944 338.308 230.584V235H337.172V226.6H338.26V228.904L338.084 228.472C338.35 227.864 338.777 227.389 339.364 227.048C339.95 226.696 340.649 226.52 341.46 226.52ZM350.64 235.08C349.851 235.08 349.243 234.867 348.816 234.44C348.39 234.013 348.176 233.411 348.176 232.632V224.744H349.312V232.568C349.312 233.059 349.435 233.437 349.68 233.704C349.936 233.971 350.299 234.104 350.768 234.104C351.27 234.104 351.686 233.96 352.016 233.672L352.416 234.488C352.192 234.691 351.92 234.84 351.6 234.936C351.291 235.032 350.971 235.08 350.64 235.08ZM346.672 227.544V226.6H351.872V227.544H346.672ZM357.611 235.08C356.801 235.08 356.07 234.899 355.419 234.536C354.779 234.163 354.273 233.656 353.899 233.016C353.526 232.365 353.339 231.624 353.339 230.792C353.339 229.949 353.526 229.208 353.899 228.568C354.273 227.928 354.779 227.427 355.419 227.064C356.059 226.701 356.79 226.52 357.611 226.52C358.443 226.52 359.179 226.701 359.819 227.064C360.47 227.427 360.977 227.928 361.339 228.568C361.713 229.208 361.899 229.949 361.899 230.792C361.899 231.624 361.713 232.365 361.339 233.016C360.977 233.656 360.47 234.163 359.819 234.536C359.169 234.899 358.433 235.08 357.611 235.08ZM357.611 234.072C358.219 234.072 358.758 233.939 359.227 233.672C359.697 233.395 360.065 233.011 360.331 232.52C360.609 232.019 360.747 231.443 360.747 230.792C360.747 230.131 360.609 229.555 360.331 229.064C360.065 228.573 359.697 228.195 359.227 227.928C358.758 227.651 358.225 227.512 357.627 227.512C357.03 227.512 356.497 227.651 356.027 227.928C355.558 228.195 355.185 228.573 354.907 229.064C354.63 229.555 354.491 230.131 354.491 230.792C354.491 231.443 354.63 232.019 354.907 232.52C355.185 233.011 355.558 233.395 356.027 233.672C356.497 233.939 357.025 234.072 357.611 234.072ZM366.475 235.08C365.781 235.08 365.125 234.984 364.507 234.792C363.888 234.589 363.403 234.339 363.051 234.04L363.563 233.144C363.904 233.4 364.341 233.624 364.875 233.816C365.408 233.997 365.968 234.088 366.555 234.088C367.355 234.088 367.931 233.965 368.283 233.72C368.635 233.464 368.811 233.128 368.811 232.712C368.811 232.403 368.709 232.163 368.507 231.992C368.315 231.811 368.059 231.677 367.739 231.592C367.419 231.496 367.061 231.416 366.667 231.352C366.272 231.288 365.877 231.213 365.483 231.128C365.099 231.043 364.747 230.92 364.427 230.76C364.107 230.589 363.845 230.36 363.643 230.072C363.451 229.784 363.355 229.4 363.355 228.92C363.355 228.461 363.483 228.051 363.739 227.688C363.995 227.325 364.368 227.043 364.859 226.84C365.36 226.627 365.968 226.52 366.683 226.52C367.227 226.52 367.771 226.595 368.315 226.744C368.859 226.883 369.307 227.069 369.659 227.304L369.163 228.216C368.789 227.96 368.389 227.779 367.963 227.672C367.536 227.555 367.109 227.496 366.683 227.496C365.925 227.496 365.365 227.629 365.003 227.896C364.651 228.152 364.475 228.483 364.475 228.888C364.475 229.208 364.571 229.459 364.763 229.64C364.965 229.821 365.227 229.965 365.547 230.072C365.877 230.168 366.235 230.248 366.619 230.312C367.013 230.376 367.403 230.456 367.787 230.552C368.181 230.637 368.539 230.76 368.859 230.92C369.189 231.069 369.451 231.288 369.643 231.576C369.845 231.853 369.947 232.221 369.947 232.68C369.947 233.171 369.808 233.597 369.531 233.96C369.264 234.312 368.869 234.589 368.347 234.792C367.835 234.984 367.211 235.08 366.475 235.08ZM281.164 255.08C280.364 255.08 279.644 254.899 279.004 254.536C278.375 254.173 277.879 253.672 277.516 253.032C277.154 252.381 276.972 251.635 276.972 250.792C276.972 249.939 277.154 249.192 277.516 248.552C277.879 247.912 278.375 247.416 279.004 247.064C279.644 246.701 280.364 246.52 281.164 246.52C281.9 246.52 282.556 246.685 283.132 247.016C283.719 247.347 284.183 247.832 284.524 248.472C284.876 249.101 285.052 249.875 285.052 250.792C285.052 251.699 284.882 252.472 284.54 253.112C284.199 253.752 283.735 254.243 283.148 254.584C282.572 254.915 281.911 255.08 281.164 255.08ZM281.244 254.072C281.842 254.072 282.375 253.939 282.844 253.672C283.324 253.395 283.698 253.011 283.964 252.52C284.242 252.019 284.38 251.443 284.38 250.792C284.38 250.131 284.242 249.555 283.964 249.064C283.698 248.573 283.324 248.195 282.844 247.928C282.375 247.651 281.842 247.512 281.244 247.512C280.658 247.512 280.13 247.651 279.66 247.928C279.191 248.195 278.818 248.573 278.54 249.064C278.263 249.555 278.124 250.131 278.124 250.792C278.124 251.443 278.263 252.019 278.54 252.52C278.818 253.011 279.191 253.395 279.66 253.672C280.13 253.939 280.658 254.072 281.244 254.072ZM284.412 255V252.472L284.524 250.776L284.364 249.08V243.128H285.5V255H284.412ZM292.088 255.08C291.277 255.08 290.547 254.899 289.896 254.536C289.256 254.163 288.749 253.656 288.376 253.016C288.003 252.365 287.816 251.624 287.816 250.792C287.816 249.949 288.003 249.208 288.376 248.568C288.749 247.928 289.256 247.427 289.896 247.064C290.536 246.701 291.267 246.52 292.088 246.52C292.92 246.52 293.656 246.701 294.296 247.064C294.947 247.427 295.453 247.928 295.816 248.568C296.189 249.208 296.376 249.949 296.376 250.792C296.376 251.624 296.189 252.365 295.816 253.016C295.453 253.656 294.947 254.163 294.296 254.536C293.645 254.899 292.909 255.08 292.088 255.08ZM292.088 254.072C292.696 254.072 293.235 253.939 293.704 253.672C294.173 253.395 294.541 253.011 294.808 252.52C295.085 252.019 295.224 251.443 295.224 250.792C295.224 250.131 295.085 249.555 294.808 249.064C294.541 248.573 294.173 248.195 293.704 247.928C293.235 247.651 292.701 247.512 292.104 247.512C291.507 247.512 290.973 247.651 290.504 247.928C290.035 248.195 289.661 248.573 289.384 249.064C289.107 249.555 288.968 250.131 288.968 250.792C288.968 251.443 289.107 252.019 289.384 252.52C289.661 253.011 290.035 253.395 290.504 253.672C290.973 253.939 291.501 254.072 292.088 254.072ZM306.227 255.08C305.427 255.08 304.707 254.899 304.067 254.536C303.437 254.173 302.941 253.672 302.579 253.032C302.216 252.381 302.035 251.635 302.035 250.792C302.035 249.939 302.216 249.192 302.579 248.552C302.941 247.912 303.437 247.416 304.067 247.064C304.707 246.701 305.427 246.52 306.227 246.52C306.963 246.52 307.619 246.685 308.195 247.016C308.781 247.347 309.245 247.832 309.587 248.472C309.939 249.101 310.115 249.875 310.115 250.792C310.115 251.699 309.944 252.472 309.603 253.112C309.261 253.752 308.797 254.243 308.211 254.584C307.635 254.915 306.973 255.08 306.227 255.08ZM306.307 254.072C306.904 254.072 307.437 253.939 307.907 253.672C308.387 253.395 308.76 253.011 309.027 252.52C309.304 252.019 309.443 251.443 309.443 250.792C309.443 250.131 309.304 249.555 309.027 249.064C308.76 248.573 308.387 248.195 307.907 247.928C307.437 247.651 306.904 247.512 306.307 247.512C305.72 247.512 305.192 247.651 304.723 247.928C304.253 248.195 303.88 248.573 303.603 249.064C303.325 249.555 303.187 250.131 303.187 250.792C303.187 251.443 303.325 252.019 303.603 252.52C303.88 253.011 304.253 253.395 304.723 253.672C305.192 253.939 305.72 254.072 306.307 254.072ZM309.475 255V252.472L309.587 250.776L309.427 249.08V243.128H310.563V255H309.475ZM317.294 255.08C316.42 255.08 315.652 254.899 314.99 254.536C314.329 254.163 313.812 253.656 313.438 253.016C313.065 252.365 312.878 251.624 312.878 250.792C312.878 249.96 313.054 249.224 313.406 248.584C313.769 247.944 314.26 247.443 314.878 247.08C315.508 246.707 316.212 246.52 316.99 246.52C317.78 246.52 318.478 246.701 319.086 247.064C319.705 247.416 320.19 247.917 320.542 248.568C320.894 249.208 321.07 249.949 321.07 250.792C321.07 250.845 321.065 250.904 321.054 250.968C321.054 251.021 321.054 251.08 321.054 251.144H313.742V250.296H320.446L319.998 250.632C319.998 250.024 319.865 249.485 319.598 249.016C319.342 248.536 318.99 248.163 318.542 247.896C318.094 247.629 317.577 247.496 316.99 247.496C316.414 247.496 315.897 247.629 315.438 247.896C314.98 248.163 314.622 248.536 314.366 249.016C314.11 249.496 313.982 250.045 313.982 250.664V250.84C313.982 251.48 314.121 252.045 314.398 252.536C314.686 253.016 315.081 253.395 315.582 253.672C316.094 253.939 316.676 254.072 317.326 254.072C317.838 254.072 318.313 253.981 318.75 253.8C319.198 253.619 319.582 253.341 319.902 252.968L320.542 253.704C320.169 254.152 319.7 254.493 319.134 254.728C318.58 254.963 317.966 255.08 317.294 255.08ZM325.639 255.08C324.945 255.08 324.289 254.984 323.671 254.792C323.052 254.589 322.567 254.339 322.215 254.04L322.727 253.144C323.068 253.4 323.505 253.624 324.039 253.816C324.572 253.997 325.132 254.088 325.719 254.088C326.519 254.088 327.095 253.965 327.447 253.72C327.799 253.464 327.975 253.128 327.975 252.712C327.975 252.403 327.873 252.163 327.671 251.992C327.479 251.811 327.223 251.677 326.903 251.592C326.583 251.496 326.225 251.416 325.831 251.352C325.436 251.288 325.041 251.213 324.647 251.128C324.263 251.043 323.911 250.92 323.591 250.76C323.271 250.589 323.009 250.36 322.807 250.072C322.615 249.784 322.519 249.4 322.519 248.92C322.519 248.461 322.647 248.051 322.903 247.688C323.159 247.325 323.532 247.043 324.023 246.84C324.524 246.627 325.132 246.52 325.847 246.52C326.391 246.52 326.935 246.595 327.479 246.744C328.023 246.883 328.471 247.069 328.823 247.304L328.327 248.216C327.953 247.96 327.553 247.779 327.127 247.672C326.7 247.555 326.273 247.496 325.847 247.496C325.089 247.496 324.529 247.629 324.167 247.896C323.815 248.152 323.639 248.483 323.639 248.888C323.639 249.208 323.735 249.459 323.927 249.64C324.129 249.821 324.391 249.965 324.711 250.072C325.041 250.168 325.399 250.248 325.783 250.312C326.177 250.376 326.567 250.456 326.951 250.552C327.345 250.637 327.703 250.76 328.023 250.92C328.353 251.069 328.615 251.288 328.807 251.576C329.009 251.853 329.111 252.221 329.111 252.68C329.111 253.171 328.972 253.597 328.695 253.96C328.428 254.312 328.033 254.589 327.511 254.792C326.999 254.984 326.375 255.08 325.639 255.08ZM331.195 255V246.6H332.331V255H331.195ZM331.771 244.744C331.537 244.744 331.339 244.664 331.179 244.504C331.019 244.344 330.939 244.152 330.939 243.928C330.939 243.704 331.019 243.517 331.179 243.368C331.339 243.208 331.537 243.128 331.771 243.128C332.006 243.128 332.203 243.203 332.363 243.352C332.523 243.501 332.603 243.688 332.603 243.912C332.603 244.147 332.523 244.344 332.363 244.504C332.214 244.664 332.017 244.744 331.771 244.744ZM339.076 258.184C338.308 258.184 337.572 258.072 336.868 257.848C336.164 257.624 335.593 257.304 335.156 256.888L335.732 256.024C336.127 256.376 336.612 256.653 337.188 256.856C337.775 257.069 338.393 257.176 339.044 257.176C340.111 257.176 340.895 256.925 341.396 256.424C341.897 255.933 342.148 255.165 342.148 254.12V252.024L342.308 250.584L342.196 249.144V246.6H343.284V253.976C343.284 255.427 342.927 256.488 342.212 257.16C341.508 257.843 340.463 258.184 339.076 258.184ZM338.868 254.68C338.068 254.68 337.348 254.509 336.708 254.168C336.068 253.816 335.561 253.331 335.188 252.712C334.825 252.093 334.644 251.384 334.644 250.584C334.644 249.784 334.825 249.08 335.188 248.472C335.561 247.853 336.068 247.373 336.708 247.032C337.348 246.691 338.068 246.52 338.868 246.52C339.615 246.52 340.287 246.675 340.884 246.984C341.481 247.293 341.956 247.752 342.308 248.36C342.66 248.968 342.836 249.709 342.836 250.584C342.836 251.459 342.66 252.2 342.308 252.808C341.956 253.416 341.481 253.88 340.884 254.2C340.287 254.52 339.615 254.68 338.868 254.68ZM338.98 253.672C339.599 253.672 340.148 253.544 340.628 253.288C341.108 253.021 341.487 252.659 341.764 252.2C342.041 251.731 342.18 251.192 342.18 250.584C342.18 249.976 342.041 249.443 341.764 248.984C341.487 248.525 341.108 248.168 340.628 247.912C340.148 247.645 339.599 247.512 338.98 247.512C338.372 247.512 337.823 247.645 337.332 247.912C336.852 248.168 336.473 248.525 336.196 248.984C335.929 249.443 335.796 249.976 335.796 250.584C335.796 251.192 335.929 251.731 336.196 252.2C336.473 252.659 336.852 253.021 337.332 253.288C337.823 253.544 338.372 253.672 338.98 253.672ZM350.733 246.52C351.416 246.52 352.013 246.653 352.525 246.92C353.048 247.176 353.453 247.571 353.741 248.104C354.04 248.637 354.189 249.309 354.189 250.12V255H353.053V250.232C353.053 249.347 352.829 248.68 352.381 248.232C351.944 247.773 351.325 247.544 350.525 247.544C349.928 247.544 349.405 247.667 348.957 247.912C348.52 248.147 348.179 248.493 347.933 248.952C347.699 249.4 347.581 249.944 347.581 250.584V255H346.445V246.6H347.533V248.904L347.357 248.472C347.624 247.864 348.051 247.389 348.637 247.048C349.224 246.696 349.923 246.52 350.733 246.52Z" fill="#EFEFEF"/>
<circle cx="1144.95" cy="64" r="15" fill="#E74C3C" fill-opacity="0.8"/>
<path d="M48.963 336L44.003 324.8H45.283L49.923 335.344H49.219L53.891 324.8H55.091L50.131 336H48.963ZM59.2598 336.08C58.4492 336.08 57.7185 335.899 57.0678 335.536C56.4278 335.163 55.9212 334.656 55.5478 334.016C55.1745 333.365 54.9878 332.624 54.9878 331.792C54.9878 330.949 55.1745 330.208 55.5478 329.568C55.9212 328.928 56.4278 328.427 57.0678 328.064C57.7078 327.701 58.4385 327.52 59.2598 327.52C60.0918 327.52 60.8278 327.701 61.4678 328.064C62.1185 328.427 62.6252 328.928 62.9878 329.568C63.3612 330.208 63.5478 330.949 63.5478 331.792C63.5478 332.624 63.3612 333.365 62.9878 334.016C62.6252 334.656 62.1185 335.163 61.4678 335.536C60.8172 335.899 60.0812 336.08 59.2598 336.08ZM59.2598 335.072C59.8678 335.072 60.4065 334.939 60.8758 334.672C61.3452 334.395 61.7132 334.011 61.9798 333.52C62.2572 333.019 62.3958 332.443 62.3958 331.792C62.3958 331.131 62.2572 330.555 61.9798 330.064C61.7132 329.573 61.3452 329.195 60.8758 328.928C60.4065 328.651 59.8732 328.512 59.2758 328.512C58.6785 328.512 58.1452 328.651 57.6758 328.928C57.2065 329.195 56.8332 329.573 56.5558 330.064C56.2785 330.555 56.1398 331.131 56.1398 331.792C56.1398 332.443 56.2785 333.019 56.5558 333.52C56.8332 334.011 57.2065 334.395 57.6758 334.672C58.1452 334.939 58.6732 335.072 59.2598 335.072ZM69.3551 336.08C68.5231 336.08 67.7764 335.899 67.1151 335.536C66.4644 335.163 65.9524 334.656 65.5791 334.016C65.2057 333.365 65.0191 332.624 65.0191 331.792C65.0191 330.949 65.2057 330.208 65.5791 329.568C65.9524 328.928 66.4644 328.427 67.1151 328.064C67.7764 327.701 68.5231 327.52 69.3551 327.52C70.0697 327.52 70.7151 327.659 71.2911 327.936C71.8671 328.213 72.3204 328.629 72.6511 329.184L71.8031 329.76C71.5151 329.333 71.1577 329.019 70.7311 328.816C70.3044 328.613 69.8404 328.512 69.3391 328.512C68.7417 328.512 68.2031 328.651 67.7231 328.928C67.2431 329.195 66.8644 329.573 66.5871 330.064C66.3097 330.555 66.1711 331.131 66.1711 331.792C66.1711 332.453 66.3097 333.029 66.5871 333.52C66.8644 334.011 67.2431 334.395 67.7231 334.672C68.2031 334.939 68.7417 335.072 69.3391 335.072C69.8404 335.072 70.3044 334.971 70.7311 334.768C71.1577 334.565 71.5151 334.256 71.8031 333.84L72.6511 334.416C72.3204 334.96 71.8671 335.376 71.2911 335.664C70.7151 335.941 70.0697 336.08 69.3551 336.08ZM78.3101 336.08C77.4354 336.08 76.6674 335.899 76.0061 335.536C75.3447 335.163 74.8274 334.656 74.4541 334.016C74.0807 333.365 73.8941 332.624 73.8941 331.792C73.8941 330.96 74.0701 330.224 74.4221 329.584C74.7847 328.944 75.2754 328.443 75.8941 328.08C76.5234 327.707 77.2274 327.52 78.0061 327.52C78.7954 327.52 79.4941 327.701 80.1021 328.064C80.7207 328.416 81.2061 328.917 81.5581 329.568C81.9101 330.208 82.0861 330.949 82.0861 331.792C82.0861 331.845 82.0807 331.904 82.0701 331.968C82.0701 332.021 82.0701 332.08 82.0701 332.144H74.7581V331.296H81.4621L81.0141 331.632C81.0141 331.024 80.8807 330.485 80.6141 330.016C80.3581 329.536 80.0061 329.163 79.5581 328.896C79.1101 328.629 78.5927 328.496 78.0061 328.496C77.4301 328.496 76.9127 328.629 76.4541 328.896C75.9954 329.163 75.6381 329.536 75.3821 330.016C75.1261 330.496 74.9981 331.045 74.9981 331.664V331.84C74.9981 332.48 75.1367 333.045 75.4141 333.536C75.7021 334.016 76.0967 334.395 76.5981 334.672C77.1101 334.939 77.6914 335.072 78.3421 335.072C78.8541 335.072 79.3287 334.981 79.7661 334.8C80.2141 334.619 80.5981 334.341 80.9181 333.968L81.5581 334.704C81.1847 335.152 80.7154 335.493 80.1501 335.728C79.5954 335.963 78.9821 336.08 78.3101 336.08ZM75.3501 326.288L77.4141 324.304H78.5661L80.6301 326.288H79.5741L77.5421 324.592H78.4381L76.4061 326.288H75.3501ZM92.1538 336.08C91.2792 336.08 90.5112 335.899 89.8498 335.536C89.1885 335.163 88.6712 334.656 88.2978 334.016C87.9245 333.365 87.7378 332.624 87.7378 331.792C87.7378 330.96 87.9138 330.224 88.2658 329.584C88.6285 328.944 89.1192 328.443 89.7378 328.08C90.3672 327.707 91.0712 327.52 91.8498 327.52C92.6392 327.52 93.3378 327.701 93.9458 328.064C94.5645 328.416 95.0498 328.917 95.4018 329.568C95.7538 330.208 95.9298 330.949 95.9298 331.792C95.9298 331.845 95.9245 331.904 95.9138 331.968C95.9138 332.021 95.9138 332.08 95.9138 332.144H88.6018V331.296H95.3058L94.8578 331.632C94.8578 331.024 94.7245 330.485 94.4578 330.016C94.2018 329.536 93.8498 329.163 93.4018 328.896C92.9538 328.629 92.4365 328.496 91.8498 328.496C91.2738 328.496 90.7565 328.629 90.2978 328.896C89.8392 329.163 89.4818 329.536 89.2258 330.016C88.9698 330.496 88.8418 331.045 88.8418 331.664V331.84C88.8418 332.48 88.9805 333.045 89.2578 333.536C89.5458 334.016 89.9405 334.395 90.4418 334.672C90.9538 334.939 91.5352 335.072 92.1858 335.072C92.6978 335.072 93.1725 334.981 93.6098 334.8C94.0578 334.619 94.4418 334.341 94.7618 333.968L95.4018 334.704C95.0285 335.152 94.5592 335.493 93.9938 335.728C93.4392 335.963 92.8258 336.08 92.1538 336.08ZM100.498 336.08C99.8047 336.08 99.1487 335.984 98.5301 335.792C97.9114 335.589 97.4261 335.339 97.0741 335.04L97.5861 334.144C97.9274 334.4 98.3647 334.624 98.8981 334.816C99.4314 334.997 99.9914 335.088 100.578 335.088C101.378 335.088 101.954 334.965 102.306 334.72C102.658 334.464 102.834 334.128 102.834 333.712C102.834 333.403 102.733 333.163 102.53 332.992C102.338 332.811 102.082 332.677 101.762 332.592C101.442 332.496 101.085 332.416 100.69 332.352C100.295 332.288 99.9007 332.213 99.5061 332.128C99.1221 332.043 98.7701 331.92 98.4501 331.76C98.1301 331.589 97.8687 331.36 97.6661 331.072C97.4741 330.784 97.3781 330.4 97.3781 329.92C97.3781 329.461 97.5061 329.051 97.7621 328.688C98.0181 328.325 98.3914 328.043 98.8821 327.84C99.3834 327.627 99.9914 327.52 100.706 327.52C101.25 327.52 101.794 327.595 102.338 327.744C102.882 327.883 103.33 328.069 103.682 328.304L103.186 329.216C102.813 328.96 102.413 328.779 101.986 328.672C101.559 328.555 101.133 328.496 100.706 328.496C99.9487 328.496 99.3887 328.629 99.0261 328.896C98.6741 329.152 98.4981 329.483 98.4981 329.888C98.4981 330.208 98.5941 330.459 98.7861 330.64C98.9887 330.821 99.2501 330.965 99.5701 331.072C99.9007 331.168 100.258 331.248 100.642 331.312C101.037 331.376 101.426 331.456 101.81 331.552C102.205 331.637 102.562 331.76 102.882 331.92C103.213 332.069 103.474 332.288 103.666 332.576C103.869 332.853 103.97 333.221 103.97 333.68C103.97 334.171 103.831 334.597 103.554 334.96C103.287 335.312 102.893 335.589 102.37 335.792C101.858 335.984 101.234 336.08 100.498 336.08ZM108.711 336.08C107.921 336.08 107.313 335.867 106.887 335.44C106.46 335.013 106.247 334.411 106.247 333.632V325.744H107.383V333.568C107.383 334.059 107.505 334.437 107.751 334.704C108.007 334.971 108.369 335.104 108.839 335.104C109.34 335.104 109.756 334.96 110.087 334.672L110.487 335.488C110.263 335.691 109.991 335.84 109.671 335.936C109.361 336.032 109.041 336.08 108.711 336.08ZM104.743 328.544V327.6H109.943V328.544H104.743ZM117.819 336V334.144L117.771 333.84V330.736C117.771 330.021 117.568 329.472 117.163 329.088C116.768 328.704 116.176 328.512 115.387 328.512C114.843 328.512 114.325 328.603 113.835 328.784C113.344 328.965 112.928 329.205 112.587 329.504L112.075 328.656C112.501 328.293 113.013 328.016 113.611 327.824C114.208 327.621 114.837 327.52 115.499 327.52C116.587 327.52 117.424 327.792 118.011 328.336C118.608 328.869 118.907 329.685 118.907 330.784V336H117.819ZM114.923 336.08C114.293 336.08 113.744 335.979 113.275 335.776C112.816 335.563 112.464 335.275 112.219 334.912C111.973 334.539 111.851 334.112 111.851 333.632C111.851 333.195 111.952 332.8 112.155 332.448C112.368 332.085 112.709 331.797 113.179 331.584C113.659 331.36 114.299 331.248 115.099 331.248H117.995V332.096H115.131C114.32 332.096 113.755 332.24 113.435 332.528C113.125 332.816 112.971 333.173 112.971 333.6C112.971 334.08 113.157 334.464 113.531 334.752C113.904 335.04 114.427 335.184 115.099 335.184C115.739 335.184 116.288 335.04 116.747 334.752C117.216 334.453 117.557 334.027 117.771 333.472L118.027 334.256C117.813 334.811 117.44 335.253 116.907 335.584C116.384 335.915 115.723 336.08 114.923 336.08ZM114.491 326.288L116.683 324.304H118.203L115.611 326.288H114.491ZM131.444 336V334.144L131.396 333.84V330.736C131.396 330.021 131.193 329.472 130.788 329.088C130.393 328.704 129.801 328.512 129.012 328.512C128.468 328.512 127.95 328.603 127.46 328.784C126.969 328.965 126.553 329.205 126.212 329.504L125.7 328.656C126.126 328.293 126.638 328.016 127.236 327.824C127.833 327.621 128.462 327.52 129.124 327.52C130.212 327.52 131.049 327.792 131.636 328.336C132.233 328.869 132.532 329.685 132.532 330.784V336H131.444ZM128.548 336.08C127.918 336.08 127.369 335.979 126.9 335.776C126.441 335.563 126.089 335.275 125.844 334.912C125.598 334.539 125.476 334.112 125.476 333.632C125.476 333.195 125.577 332.8 125.78 332.448C125.993 332.085 126.334 331.797 126.804 331.584C127.284 331.36 127.924 331.248 128.724 331.248H131.62V332.096H128.756C127.945 332.096 127.38 332.24 127.06 332.528C126.75 332.816 126.596 333.173 126.596 333.6C126.596 334.08 126.782 334.464 127.156 334.752C127.529 335.04 128.052 335.184 128.724 335.184C129.364 335.184 129.913 335.04 130.372 334.752C130.841 334.453 131.182 334.027 131.396 333.472L131.652 334.256C131.438 334.811 131.065 335.253 130.532 335.584C130.009 335.915 129.348 336.08 128.548 336.08ZM138.961 336.08C138.161 336.08 137.441 335.899 136.801 335.536C136.172 335.173 135.676 334.672 135.313 334.032C134.95 333.392 134.769 332.645 134.769 331.792C134.769 330.949 134.95 330.208 135.313 329.568C135.676 328.917 136.172 328.416 136.801 328.064C137.441 327.701 138.161 327.52 138.961 327.52C139.708 327.52 140.369 327.685 140.945 328.016C141.532 328.347 141.996 328.832 142.337 329.472C142.678 330.101 142.849 330.875 142.849 331.792C142.849 332.709 142.673 333.488 142.321 334.128C141.98 334.757 141.516 335.243 140.929 335.584C140.353 335.915 139.697 336.08 138.961 336.08ZM139.041 335.072C139.638 335.072 140.172 334.939 140.641 334.672C141.121 334.395 141.494 334.011 141.761 333.52C142.038 333.019 142.177 332.443 142.177 331.792C142.177 331.141 142.038 330.571 141.761 330.08C141.494 329.589 141.121 329.205 140.641 328.928C140.172 328.651 139.638 328.512 139.041 328.512C138.454 328.512 137.926 328.651 137.457 328.928C136.988 329.205 136.614 329.589 136.337 330.08C136.06 330.571 135.921 331.141 135.921 331.792C135.921 332.443 136.06 333.019 136.337 333.52C136.614 334.011 136.988 334.395 137.457 334.672C137.926 334.939 138.454 335.072 139.041 335.072ZM142.161 339.104V333.504L142.321 331.808L142.209 330.128V327.6H143.297V339.104H142.161ZM149.933 336.08C149.218 336.08 148.594 335.947 148.061 335.68C147.527 335.413 147.111 335.013 146.813 334.48C146.525 333.947 146.381 333.28 146.381 332.48V327.6H147.517V332.352C147.517 333.248 147.735 333.925 148.173 334.384C148.621 334.832 149.245 335.056 150.045 335.056C150.631 335.056 151.138 334.939 151.565 334.704C152.002 334.459 152.333 334.107 152.557 333.648C152.791 333.189 152.909 332.64 152.909 332V327.6H154.045V336H152.957V333.696L153.133 334.112C152.866 334.731 152.45 335.216 151.885 335.568C151.33 335.909 150.679 336.08 149.933 336.08ZM157.211 336V327.6H158.347V336H157.211ZM157.787 325.744C157.552 325.744 157.355 325.664 157.195 325.504C157.035 325.344 156.955 325.152 156.955 324.928C156.955 324.704 157.035 324.517 157.195 324.368C157.355 324.208 157.552 324.128 157.787 324.128C158.021 324.128 158.219 324.203 158.379 324.352C158.539 324.501 158.619 324.688 158.619 324.912C158.619 325.147 158.539 325.344 158.379 325.504C158.229 325.664 158.032 325.744 157.787 325.744Z" fill="#EFEFEF"/>
</svg>
