<svg width="30" height="30" viewBox="0 0 30 30" fill="none" xmlns="http://www.w3.org/2000/svg">
<path fill-rule="evenodd" clip-rule="evenodd" d="M19.0481 20.1001C18.91 20.2288 18.7991 20.384 18.7223 20.5565C18.6454 20.729 18.6041 20.9153 18.6008 21.1041C18.5974 21.2929 18.6322 21.4804 18.7029 21.6555C18.7736 21.8306 18.8789 21.9897 19.0124 22.1232C19.146 22.2568 19.305 22.3621 19.4801 22.4328C19.6552 22.5035 19.8428 22.5382 20.0316 22.5349C20.2204 22.5316 20.4066 22.4903 20.5791 22.4134C20.7516 22.3365 20.9069 22.2257 21.0356 22.0875L27.1312 15.9938L28.125 15.0001L27.1312 14.0063L21.0375 7.91255C20.7724 7.65626 20.4172 7.51435 20.0485 7.51738C19.6798 7.52041 19.327 7.66814 19.0662 7.92875C18.8053 8.18935 18.6573 8.54199 18.6539 8.91071C18.6505 9.27942 18.7921 9.63471 19.0481 9.90005L22.7419 13.5938L3.28125 13.5938C2.90829 13.5938 2.55061 13.742 2.28688 14.0057C2.02316 14.2694 1.875 14.6271 1.875 15C1.875 15.373 2.02316 15.7307 2.28688 15.9944C2.55061 16.2581 2.90829 16.4063 3.28125 16.4063L22.7419 16.4063L19.0481 20.1001Z" fill="#E74C3C"/>
</svg>
